<?xml version="1.0" encoding="UTF-8" standalone="no"?>
<!-- Created with Inkscape (http://www.inkscape.org/) -->

<svg width="1.5875cm" height="1.3292196cm" viewBox="0 0 15.875 13.292196" version="1.1" id="svg5" inkscape:version="1.1.1 (3bf5ae0d25, 2021-09-20)" sodipodi:docname="logo-light-22.svg" xmlns:inkscape="http://www.inkscape.org/namespaces/inkscape" xmlns:sodipodi="http://sodipodi.sourceforge.net/DTD/sodipodi-0.dtd" xmlns="http://www.w3.org/2000/svg" xmlns:svg="http://www.w3.org/2000/svg">
  <sodipodi:namedview id="namedview7" pagecolor="#ffffff" bordercolor="#666666" borderopacity="1.0" inkscape:pageshadow="2" inkscape:pageopacity="0.0" inkscape:pagecheckerboard="0" inkscape:document-units="mm" showgrid="false" inkscape:snap-global="true" units="cm" fit-margin-top="0" fit-margin-left="0" fit-margin-right="0" fit-margin-bottom="0" inkscape:zoom="1" inkscape:cx="207.5" inkscape:cy="236.5" inkscape:window-width="1920" inkscape:window-height="1029" inkscape:window-x="0" inkscape:window-y="26" inkscape:window-maximized="1" inkscape:current-layer="layer1" />
  <defs id="defs2">
    <filter inkscape:collect="always" style="color-interpolation-filters:sRGB" id="filter13377" x="-0.16298659" y="-0.098710188" width="1.3259732" height="1.1974204">
      <feGaussianBlur inkscape:collect="always" stdDeviation="1.0066577" id="feGaussianBlur13379" />
    </filter>
  </defs>
  <g inkscape:label="Layer 1" inkscape:groupmode="layer" id="layer1" transform="translate(-64.275403,-71.029997)">
    <g id="g14151" transform="matrix(0.18073103,0,0,0.18073103,52.658842,58.192126)">
      <path d="m 113.13403,138.04997 h 28.89696 c 2.2649,0 4.0612,-1.7963 4.0612,-3.98309 0,-2.1087 -1.7963,-3.9831 -4.0612,-3.9831 h -21.86797 l 17.88488,-20.30597 c 3.2802,-3.7488 6.95089,-9.13769 6.95089,-14.214183 0,-11.402585 -6.87279,-18.509676 -17.41628,-18.509676 -10.54348,0 -18.43157,7.96619 -18.43157,18.509676 0,2.108698 1.79629,3.904995 3.98309,3.904995 2.2649,0 3.9831,-1.796297 3.9831,-3.904995 0,-6.013692 4.52979,-11.168285 10.46538,-11.168285 6.0137,0 9.76249,4.373594 9.76249,11.168285 0,2.889697 -1.7963,6.169893 -4.92029,9.762483 l -22.18037,25.92917 c -0.7029,0.7029 -1.0934,1.7182 -1.0934,2.8116 0,2.18679 1.7182,3.98309 3.98309,3.98309 z" id="path14103" style="font-weight:bold;font-size:78.0999px;line-height:1.25;font-family:Comfortaa;-inkscape-font-specification:'Comfortaa Bold';letter-spacing:13.4303px;opacity:0.791132;stroke:#000000;stroke-width:7.2099;stroke-linecap:round;stroke-linejoin:round;filter:url(#filter13377)" />
      <path d="m 112.03385,136.55045 h 28.89696 c 2.2649,0 4.0612,-1.7963 4.0612,-3.9831 0,-2.1087 -1.7963,-3.98309 -4.0612,-3.98309 h -21.86797 l 17.88488,-20.30598 c 3.28019,-3.74879 6.95089,-9.137686 6.95089,-14.21418 0,-11.402585 -6.87279,-18.509676 -17.41628,-18.509676 -10.54348,0 -18.43157,7.96619 -18.43157,18.509676 0,2.108698 1.79629,3.904995 3.98309,3.904995 2.2649,0 3.9831,-1.796297 3.9831,-3.904995 0,-6.013692 4.52979,-11.168285 10.46538,-11.168285 6.01369,0 9.76249,4.373594 9.76249,11.168285 0,2.889697 -1.7963,6.16989 -4.92029,9.76249 l -22.18038,25.92916 c -0.70289,0.7029 -1.09339,1.7182 -1.09339,2.8116 0,2.1868 1.71819,3.9831 3.98309,3.9831 z" id="path14108" style="font-weight:bold;font-size:78.0999px;line-height:1.25;font-family:Comfortaa;-inkscape-font-specification:'Comfortaa Bold';letter-spacing:13.4303px;fill:#ffffff;stroke:#ffffff;stroke-width:7.2099;stroke-linecap:round;stroke-linejoin:round" />
      <path d="m 112.03385,136.55045 h 28.89696 c 2.2649,0 4.0612,-1.7963 4.0612,-3.9831 0,-2.1087 -1.7963,-3.98309 -4.0612,-3.98309 h -21.86797 l 17.88488,-20.30598 c 3.28019,-3.74879 6.95089,-9.137686 6.95089,-14.21418 0,-11.402585 -6.87279,-18.509676 -17.41628,-18.509676 -10.54348,0 -18.43157,7.96619 -18.43157,18.509676 0,2.108698 1.79629,3.904995 3.98309,3.904995 2.2649,0 3.9831,-1.796297 3.9831,-3.904995 0,-6.013692 4.52979,-11.168285 10.46538,-11.168285 6.01369,0 9.76249,4.373594 9.76249,11.168285 0,2.889697 -1.7963,6.16989 -4.92029,9.76249 l -22.18038,25.92916 c -0.70289,0.7029 -1.09339,1.7182 -1.09339,2.8116 0,2.1868 1.71819,3.9831 3.98309,3.9831 z" id="path14113" style="font-weight:bold;font-size:78.0999px;line-height:1.25;font-family:Comfortaa;-inkscape-font-specification:'Comfortaa Bold';letter-spacing:13.4303px;fill:#ff6600;stroke:#ff6600;stroke-width:3.37344;stroke-linecap:round;stroke-linejoin:round" />
      <path d="m 112.03385,136.55045 h 28.89696 c 2.2649,0 4.0612,-1.7963 4.0612,-3.9831 0,-2.1087 -1.7963,-3.98309 -4.0612,-3.98309 h -21.86797 l 17.88488,-20.30598 c 3.28019,-3.74879 6.95089,-9.137686 6.95089,-14.21418 0,-11.402585 -6.87279,-18.509676 -17.41628,-18.509676 -10.54348,0 -18.43157,7.96619 -18.43157,18.509676 0,2.108698 1.79629,3.904995 3.98309,3.904995 2.2649,0 3.9831,-1.796297 3.9831,-3.904995 0,-6.013692 4.52979,-11.168285 10.46538,-11.168285 6.01369,0 9.76249,4.373594 9.76249,11.168285 0,2.889697 -1.7963,6.16989 -4.92029,9.76249 l -22.18038,25.92916 c -0.70289,0.7029 -1.09339,1.7182 -1.09339,2.8116 0,2.1868 1.71819,3.9831 3.98309,3.9831 z" id="path14118" style="font-weight:bold;font-size:78.0999px;line-height:1.25;font-family:Comfortaa;-inkscape-font-specification:'Comfortaa Bold';letter-spacing:13.4303px;fill:#ffffff;stroke-width:0.54236" />
    </g>
    <g id="g14157" transform="matrix(0.18073103,0,0,0.18073103,56.363537,58.284111)">
      <path d="m 53.781043,138.04997 h 28.896963 c 2.264897,0 4.061194,-1.7963 4.061194,-3.98309 0,-2.1087 -1.796297,-3.9831 -4.061194,-3.9831 H 60.810034 l 17.884877,-20.30597 c 3.280196,-3.7488 6.950891,-9.13769 6.950891,-14.214183 0,-11.402585 -6.872791,-18.509676 -17.416278,-18.509676 -10.543486,0 -18.431576,7.96619 -18.431576,18.509676 0,2.108698 1.796298,3.904995 3.983095,3.904995 2.264897,0 3.983095,-1.796297 3.983095,-3.904995 0,-6.013692 4.529794,-11.168285 10.465386,-11.168285 6.013693,0 9.762488,4.373594 9.762488,11.168285 0,2.889697 -1.796298,6.169893 -4.920294,9.762483 l -22.180371,25.92917 c -0.702899,0.7029 -1.093399,1.7182 -1.093399,2.8116 0,2.18679 1.718198,3.98309 3.983095,3.98309 z" id="path14101" style="font-weight:bold;font-size:78.0999px;line-height:1.25;font-family:Comfortaa;-inkscape-font-specification:'Comfortaa Bold';letter-spacing:13.4303px;opacity:0.791132;stroke:#000000;stroke-width:7.2099;stroke-linecap:round;stroke-linejoin:round;filter:url(#filter13377)" />
      <path d="M 52.680907,136.55045 H 81.57787 c 2.264897,0 4.061195,-1.7963 4.061195,-3.9831 0,-2.1087 -1.796298,-3.98309 -4.061195,-3.98309 H 59.709898 l 17.884877,-20.30598 c 3.280196,-3.74879 6.950891,-9.137686 6.950891,-14.21418 0,-11.402585 -6.872791,-18.509676 -17.416277,-18.509676 -10.543487,0 -18.431577,7.96619 -18.431577,18.509676 0,2.108698 1.796298,3.904995 3.983095,3.904995 2.264897,0 3.983095,-1.796297 3.983095,-3.904995 0,-6.013692 4.529794,-11.168285 10.465387,-11.168285 6.013692,0 9.762487,4.373594 9.762487,11.168285 0,2.889697 -1.796298,6.16989 -4.920294,9.76249 l -22.180371,25.92916 c -0.702899,0.7029 -1.093399,1.7182 -1.093399,2.8116 0,2.1868 1.718198,3.9831 3.983095,3.9831 z" id="path14106" style="font-weight:bold;font-size:78.0999px;line-height:1.25;font-family:Comfortaa;-inkscape-font-specification:'Comfortaa Bold';letter-spacing:13.4303px;fill:#ffffff;stroke:#ffffff;stroke-width:7.2099;stroke-linecap:round;stroke-linejoin:round" />
      <path d="M 52.680907,136.55045 H 81.57787 c 2.264897,0 4.061195,-1.7963 4.061195,-3.9831 0,-2.1087 -1.796298,-3.98309 -4.061195,-3.98309 H 59.709898 l 17.884877,-20.30598 c 3.280196,-3.74879 6.950891,-9.137686 6.950891,-14.21418 0,-11.402585 -6.872791,-18.509676 -17.416277,-18.509676 -10.543487,0 -18.431577,7.96619 -18.431577,18.509676 0,2.108698 1.796298,3.904995 3.983095,3.904995 2.264897,0 3.983095,-1.796297 3.983095,-3.904995 0,-6.013692 4.529794,-11.168285 10.465387,-11.168285 6.013692,0 9.762487,4.373594 9.762487,11.168285 0,2.889697 -1.796298,6.16989 -4.920294,9.76249 l -22.180371,25.92916 c -0.702899,0.7029 -1.093399,1.7182 -1.093399,2.8116 0,2.1868 1.718198,3.9831 3.983095,3.9831 z" id="path14111" style="font-weight:bold;font-size:78.0999px;line-height:1.25;font-family:Comfortaa;-inkscape-font-specification:'Comfortaa Bold';letter-spacing:13.4303px;fill:#ff6600;stroke:#ff6600;stroke-width:3.37344;stroke-linecap:round;stroke-linejoin:round" />
      <path d="M 52.680907,136.55045 H 81.57787 c 2.264897,0 4.061195,-1.7963 4.061195,-3.9831 0,-2.1087 -1.796298,-3.98309 -4.061195,-3.98309 H 59.709898 l 17.884877,-20.30598 c 3.280196,-3.74879 6.950891,-9.137686 6.950891,-14.21418 0,-11.402585 -6.872791,-18.509676 -17.416277,-18.509676 -10.543487,0 -18.431577,7.96619 -18.431577,18.509676 0,2.108698 1.796298,3.904995 3.983095,3.904995 2.264897,0 3.983095,-1.796297 3.983095,-3.904995 0,-6.013692 4.529794,-11.168285 10.465387,-11.168285 6.013692,0 9.762487,4.373594 9.762487,11.168285 0,2.889697 -1.796298,6.16989 -4.920294,9.76249 l -22.180371,25.92916 c -0.702899,0.7029 -1.093399,1.7182 -1.093399,2.8116 0,2.1868 1.718198,3.9831 3.983095,3.9831 z" id="path14116" style="font-weight:bold;font-size:78.0999px;line-height:1.25;font-family:Comfortaa;-inkscape-font-specification:'Comfortaa Bold';letter-spacing:13.4303px;fill:#ffffff;stroke-width:0.54236" />
    </g>
  </g>
</svg>
