<svg xmlns="http://www.w3.org/2000/svg" viewBox="0 0 52.917 26.458">
  <path d="M4.818 1.142a.081.081 0 0 0-.028 0c-.027.006-.08.014-.117.02-.105.016-.145.07-.142.194a.503.503 0 0 1-.02.136.235.235 0 0 0-.016.086.14.14 0 0 1-.008.063.137.137 0 0 0-.005.07.11.11 0 0 1-.002.058.111.111 0 0 0-.003.055c.007.02-.04.166-.09.274-.013.03-.022.063-.019.07a.632.632 0 0 1-.008.124.876.876 0 0 0 0 .196.422.422 0 0 1-.003.144.175.175 0 0 0-.003.089c.016.043.02.145.008.29a1.216 1.216 0 0 0-.003.159.898.898 0 0 1-.055.264c-.005.007-.003.03.005.051a.185.185 0 0 1-.001.096.55.55 0 0 0-.01.147c.002.05 0 .11-.007.136a.162.162 0 0 0-.007.06c.005.013 0 .05-.027.27a.292.292 0 0 0 .015.119.272.272 0 0 1 .02.088 4.912 4.912 0 0 1-.009.082.217.217 0 0 0 .002.073.066.066 0 0 1-.006.045.137.137 0 0 0-.006.072.298.298 0 0 1-.013.111.43.43 0 0 0-.016.127.657.657 0 0 1-.001.096c-.029.209-.028.245.004.269.032.023.045.076.035.149a.586.586 0 0 0 .012.207c.018.046.023.19.012.328a.384.384 0 0 0 .017.17.278.278 0 0 1 .017.126l-.013.118a.956.956 0 0 1-.025.134.204.204 0 0 0 .009.157c.02.053.027.101.021.146-.027.218-.027.251-.006.302.018.046.037.22.033.311-.004.082-.002.133.02.39a.504.504 0 0 1-.002.117.136.136 0 0 0-.002.06.383.383 0 0 1-.001.1.345.345 0 0 0 .007.124.25.25 0 0 1 .005.1c-.008.04-.004.07.012.094.014.02.019.042.012.05-.009.011.001.044.03.1.037.074.04.093.033.182a1.16 1.16 0 0 0-.001.175.463.463 0 0 1-.02.224 1.81 1.81 0 0 0-.082.345 1.11 1.11 0 0 1-.06.207 1.02 1.02 0 0 0-.064.256c-.011.126-.042.194-.164.367a.655.655 0 0 0-.08.147 3.12 3.12 0 0 1-.064.173.612.612 0 0 0-.045.185.65.65 0 0 1-.049.193c-.052.131-.102.316-.092.341.003.009-.03.099-.072.2a14.04 14.04 0 0 0-.161.407l-.116.308a1.369 1.369 0 0 0-.075.318c0 .022.004.085.01.14.01.083.003.127-.04.255-.066.201-.062.19-.122.338-.036.089-.047.138-.038.163.018.047-.012.145-.102.34-.068.147-.133.235-.19.257-.028.011-.116.103-.218.227a.339.339 0 0 1-.094.083.372.372 0 0 0-.102.104.4.4 0 0 1-.092.1.293.293 0 0 0-.077.077 2.432 2.432 0 0 1-.156.179l-.138.148a.472.472 0 0 1-.114.077.437.437 0 0 0-.196.178.548.548 0 0 1-.111.11 1.29 1.29 0 0 0-.273.304 1.248 1.248 0 0 1-.177.269c-.035.037-.09.106-.123.153-.056.081-.064.087-.138.105-.05.013-.079.026-.081.038-.002.01-.02.025-.04.033-.054.02-.094.125-.077.205.012.055.006.084-.035.17a.4.4 0 0 1-.067.108c-.02.008-.067.115-.072.167-.007.059.03.133.095.193.08.072.106.062.17-.07.05-.102.15-.244.18-.255a.452.452 0 0 0 .069-.101c.03-.052.084-.126.121-.165a.666.666 0 0 0 .083-.101.706.706 0 0 1 .183-.192.285.285 0 0 0 .083-.08c.069-.093.12-.142.151-.144.016 0 .045-.026.068-.06a.699.699 0 0 1 .186-.188.217.217 0 0 0 .07-.066.354.354 0 0 1 .071-.077.551.551 0 0 0 .07-.058c.02-.02.047-.04.06-.045a.22.22 0 0 0 .06-.063.242.242 0 0 1 .054-.06.227.227 0 0 0 .049-.042.464.464 0 0 1 .082-.064c.086-.05.09-.01.013.174a5.914 5.914 0 0 0-.133.367c-.035.11-.083.234-.106.275-.039.068-.067.19-.054.226.017.044-.12.373-.188.457a.683.683 0 0 0-.094.173c-.02.058-.118.286-.217.507-.098.22-.177.406-.175.412.006.016-.282.603-.298.61-.029.01-.1.158-.113.23-.011.068-.007.09.035.195a.852.852 0 0 0 .059.126.55.55 0 0 0 .14-.03c.126-.037.13-.04.175-.103.075-.104.09-.166.06-.245-.02-.054-.02-.084-.002-.148.027-.1.156-.353.24-.472a.92.92 0 0 0 .098-.185c.102-.29.331-.81.414-.94a.875.875 0 0 0 .086-.192c.015-.054.06-.183.101-.286a5.34 5.34 0 0 0 .105-.288 9.88 9.88 0 0 1 .387-.923c.027-.041.088-.195.136-.343.125-.385.156-.455.24-.542a.607.607 0 0 1 .09-.083c.015-.005.235-.237.283-.298.009-.011.05-.055.093-.098.043-.042.105-.116.138-.163a1.5 1.5 0 0 1 .331-.351.704.704 0 0 0 .173-.146.492.492 0 0 0 .045-.05.887.887 0 0 1 .068-.072.909.909 0 0 0 .092-.108.288.288 0 0 1 .05-.06 1.536 1.536 0 0 0 .236-.282.945.945 0 0 0 .068-.082c.066-.084.128-.12.154-.09.009.01.012.022.006.029-.02.026.022.3.062.408.009.023.024.094.033.156.01.062.027.142.04.176a.439.439 0 0 1 .025.128c0 .06.004.068.045.103.035.03.057.068.103.182a.6.6 0 0 0 .077.154c.025.012.053.086.063.172.006.051.015.075.035.093.018.015.03.041.033.07.006.068.13.37.176.435a.457.457 0 0 1 .064.147c.014.054.033.098.045.106a.436.436 0 0 1 .12.187.163.163 0 0 0 .038.077.596.596 0 0 1 .076.146c.028.068.087.186.131.262.078.135.122.234.167.376.025.08.097.203.13.222.016.009.037.059.066.155.036.119.052.152.093.198a.318.318 0 0 1 .074.146.35.35 0 0 0 .066.139.383.383 0 0 1 .05.068.219.219 0 0 0 .06.057.67.67 0 0 1 .174.285c.015.099.07.244.097.253.034.011.039.026.044.123.004.077.005.08.052.11v.001c.046.031.049.031.138-.01a.393.393 0 0 0 .185-.143.286.286 0 0 1 .062-.063c.045-.03.05-.082.016-.146-.02-.038-.063-.071-.163-.128-.125-.07-.137-.082-.155-.138a.23.23 0 0 0-.033-.071.404.404 0 0 1-.038-.107c-.019-.07-.034-.102-.054-.115a.168.168 0 0 1-.047-.07c-.01-.028-.031-.055-.047-.06a.068.068 0 0 1-.037-.035.239.239 0 0 0-.06-.066.621.621 0 0 1-.203-.289 1.689 1.689 0 0 0-.099-.21 1.113 1.113 0 0 1-.078-.162 3.225 3.225 0 0 0-.218-.454.149.149 0 0 1-.032-.086.138.138 0 0 0-.04-.091.712.712 0 0 1-.083-.13 1.478 1.478 0 0 0-.097-.163 1.607 1.607 0 0 1-.146-.325 2.65 2.65 0 0 1-.093-.273c.001-.009-.02-.034-.05-.056-.049-.037-.057-.053-.145-.284-.05-.134-.1-.25-.108-.255a.4.4 0 0 1-.04-.12.504.504 0 0 0-.07-.183.307.307 0 0 1-.046-.1.087.087 0 0 0-.026-.052 1.116 1.116 0 0 1-.099-.176c-.069-.142-.073-.157-.078-.266a.453.453 0 0 0-.018-.128.688.688 0 0 1-.052-.281.199.199 0 0 0 0-.083c-.017-.045.048-.163.15-.272.084-.088.178-.214.245-.326.023-.04.07-.097.192-.235.018-.02.075-.097.125-.17.12-.17.168-.228.249-.297.068-.057.284-.289.352-.377a2.21 2.21 0 0 1 .155-.181c.11-.116.145-.158.242-.288l.128-.174a.298.298 0 0 1 .06-.062c.019-.013.035-.03.036-.039.002-.008.012-.018.023-.022a.85.85 0 0 0 .115-.126 50.508 50.508 0 0 1 .588-.714c.049-.06.223-.302.303-.424.094-.141.339-.426.538-.624a.58.58 0 0 1 .221-.154c.108-.048.126-.06.148-.105.014-.028.02-.062.015-.075-.005-.014.004-.043.02-.064.016-.02.046-.06.067-.09a.209.209 0 0 1 .066-.062c.038-.014.1-.104.094-.136-.005-.029-.102-.052-.148-.035a.65.65 0 0 0-.112.084c-.096.085-.181.114-.287.098-.06-.008-.072-.005-.124.03a.51.51 0 0 0-.105.11c-.084.124-.13.174-.241.264a1.61 1.61 0 0 0-.19.185 2.049 2.049 0 0 1-.12.135 2.961 2.961 0 0 0-.19.25 6.469 6.469 0 0 1-.443.576c-.075.088-.164.21-.198.272-.033.061-.117.18-.186.265-.07.085-.16.21-.2.28-.068.112-.146.209-.41.507a2.857 2.857 0 0 0-.133.162.736.736 0 0 1-.115.118c-.112.089-.214.2-.274.3a.624.624 0 0 1-.084.116c-.041.032-.17.196-.26.332-.062.094-.093.127-.13.142a.204.204 0 0 0-.094.086c-.068.107-.12.155-.191.182-.057.022-.068.022-.077-.002-.006-.015-.006-.033-.001-.04a.671.671 0 0 0-.011-.16.785.785 0 0 1-.011-.176c.022-.064.014-.148-.026-.264-.029-.086-.038-.133-.03-.157.012-.032.01-.07-.007-.218a1.717 1.717 0 0 1-.004-.322c.005-.016-.008-.06-.039-.125a.365.365 0 0 1-.047-.18c0-.045-.007-.088-.015-.097-.018-.02-.044-.152-.06-.306a.494.494 0 0 0-.064-.214c-.075-.147-.072-.226.02-.462.076-.2.083-.232.062-.288a.2.2 0 0 1-.014-.075l.01-.103a.93.93 0 0 1 .05-.188 1.08 1.08 0 0 0 .053-.19.985.985 0 0 1 .05-.246.743.743 0 0 0 .036-.282.39.39 0 0 1 .027-.13.668.668 0 0 0 .036-.162c.005-.12.007-.133.027-.275l.028-.202a.977.977 0 0 1 .038-.151.714.714 0 0 0 .035-.245c-.005-.013.061-.3.073-.315.005-.008.004-.03-.004-.05-.015-.04-.005-.263.017-.37a.418.418 0 0 0-.001-.141.76.76 0 0 1-.007-.173c.014-.187.015-.221.003-.253a.265.265 0 0 1 .01-.113.537.537 0 0 0 .007-.197.737.737 0 0 1-.009-.132.795.795 0 0 0 .021-.195.207.207 0 0 1 0-.068c.023-.179.025-.246.013-.338a1.372 1.372 0 0 1-.013-.18 2.322 2.322 0 0 0-.033-.413.3.3 0 0 1-.001-.129.17.17 0 0 0 .005-.084.152.152 0 0 1 .008-.083.25.25 0 0 0 .012-.098.932.932 0 0 1 .005-.157.725.725 0 0 0 .007-.126.318.318 0 0 1 .01-.088c.013-.064.01-.085-.027-.173a.416.416 0 0 1-.036-.13.695.695 0 0 0 .003-.093 2.77 2.77 0 0 1 0-.116c0-.04-.007-.06-.03-.088-.026-.028-.03-.04-.019-.059.008-.013.012-.029.009-.036a.53.53 0 0 1 .003-.098.382.382 0 0 0-.012-.136c-.01-.028-.016-.058-.011-.069.005-.01-.005-.038-.025-.07a1.504 1.504 0 0 1-.093-.216c-.053-.15-.062-.167-.09-.17-.022-.004-.032-.015-.035-.041-.006-.05-.123-.127-.196-.137Zm.053.727c.01.002.023.014.03.035.01.023.03.049.046.058.046.025.09.146.087.232a.661.661 0 0 0 .013.144.34.34 0 0 1 .009.11.136.136 0 0 0 0 .06.276.276 0 0 1-.003.094c-.01.06-.003.096.037.219s.045.154.03.189a.122.122 0 0 0-.004.076.847.847 0 0 1-.004.2 1.38 1.38 0 0 0-.011.18.552.552 0 0 1-.02.119.53.53 0 0 0-.018.182c-.004.038.001.057.024.085.026.03.029.051.022.137a.29.29 0 0 0 .01.129c.01.014.013.033.007.041-.006.008-.005.033.003.054a.765.765 0 0 1-.002.204.521.521 0 0 0-.001.19.35.35 0 0 1 .024.192c-.006.016-.009.034-.007.039a.625.625 0 0 1-.004.095.418.418 0 0 0 0 .108.138.138 0 0 1-.005.067.146.146 0 0 0-.009.06.263.263 0 0 1-.02.088c-.038.11-.045.162-.029.206.009.021.01.05.005.062a.478.478 0 0 0 0 .188.794.794 0 0 1-.003.158.483.483 0 0 0 .008.163c.03.078-.007.325-.08.537-.033.1-.077.439-.06.48a.527.527 0 0 1-.02.12.635.635 0 0 0-.02.117c.003.005-.003.027-.014.046a.982.982 0 0 0-.06.327.554.554 0 0 1-.04.195.26.26 0 0 1-.055.089c-.07.027-.119-.128-.1-.319a.56.56 0 0 0-.003-.174.357.357 0 0 1-.01-.187.098.098 0 0 0-.004-.06.151.151 0 0 1-.003-.08.315.315 0 0 0 .01-.179.499.499 0 0 1-.001-.148c.006-.05.004-.1-.004-.11-.009-.01-.012-.049-.008-.087.005-.044 0-.082-.013-.1-.023-.033-.02-.08.01-.157.015-.042.013-.06-.01-.104-.02-.036-.025-.06-.016-.076.025-.044.022-.161-.006-.261a.555.555 0 0 1-.017-.218.89.89 0 0 0 .006-.13.21.21 0 0 1 .013-.068c.012-.04.009-.095-.012-.196a.419.419 0 0 1-.016-.15c.007-.006.015-.045.017-.086a.504.504 0 0 1 .015-.105.269.269 0 0 0 .007-.083c-.001-.03.002-.092.006-.137a.36.36 0 0 0 0-.106.066.066 0 0 1 .005-.049.07.07 0 0 0 .004-.052.243.243 0 0 1 .008-.101.667.667 0 0 0 .011-.167c-.007-.106.001-.26.015-.279.005-.006.004-.027-.003-.045s-.008-.04-.002-.047c.006-.008.005-.03-.002-.05-.019-.047-.008-.124.033-.233a.378.378 0 0 0 .027-.137.562.562 0 0 1 .003-.12.304.304 0 0 0-.006-.116.327.327 0 0 1-.012-.109.704.704 0 0 0-.027-.18.365.365 0 0 1-.021-.125c.005-.007.006-.022.002-.033a.972.972 0 0 1 .02-.26c.007-.028.027-.09.045-.137a.83.83 0 0 0 .058-.246c-.003-.007.001-.023.009-.036a.26.26 0 0 0 .018-.082c.002-.032.017-.069.032-.082a.108.108 0 0 0 .031-.043c.004-.019.014-.027.025-.025zM25.269 3.1a.514.514 0 0 0-.15.035c-.09.033-.252.13-.291.176-.017.02-.066.052-.242.16-.114.069-.243.201-.26.267a.887.887 0 0 1-.074.154c-.035.06-.055.112-.049.128.012.03-.017.112-.042.121-.032.012-.061.115-.05.172.018.083-.038.224-.12.307a.705.705 0 0 0-.141.23c-.013.04-.033.077-.043.081-.01.004-.028.037-.04.073-.021.066-.087.127-.204.191a.19.19 0 0 0-.065.06.947.947 0 0 1-.073.106.478.478 0 0 0-.069.124c-.008.03-.022.058-.032.061a.177.177 0 0 0-.046.04.445.445 0 0 1-.064.057.298.298 0 0 0-.07.1c-.022.048-.048.082-.07.09a.166.166 0 0 0-.062.052.964.964 0 0 1-.073.088.655.655 0 0 0-.08.114.22.22 0 0 1-.053.072 2.542 2.542 0 0 0-.237.185c-.138.133-.417.273-.505.254-.058-.013-.112-.1-.098-.157a.131.131 0 0 0 0-.067.422.422 0 0 1-.001-.127.403.403 0 0 0-.007-.145.209.209 0 0 1-.014-.082c.003-.026-.003-.037-.027-.05a.092.092 0 0 1-.04-.038c-.005-.012-.016-.024-.026-.026-.01-.002-.02-.013-.025-.025a.286.286 0 0 0-.094-.067 4.191 4.191 0 0 1-.14-.077c-.054-.032-.312-.07-.357-.052a.427.427 0 0 1-.088.01 1 1 0 0 0-.184.03.364.364 0 0 0-.182.085.602.602 0 0 0-.093.096.306.306 0 0 1-.085.075.75.75 0 0 0-.12.095c-.069.068-.145.105-.177.086a1.48 1.48 0 0 1-.152-.29.55.55 0 0 0-.08-.113 1.244 1.244 0 0 1-.11-.15.286.286 0 0 0-.1-.108 1.157 1.157 0 0 1-.119-.074c-.058-.04-.083-.048-.147-.043a1.91 1.91 0 0 0-.456.122 1.251 1.251 0 0 1-.23.066.63.63 0 0 0-.295.124.467.467 0 0 1-.078.055.136.136 0 0 0-.045.039.526.526 0 0 1-.108.082.612.612 0 0 0-.131.11.871.871 0 0 1-.133.12c-.074.054-.22.196-.268.261a1.075 1.075 0 0 1-.18.18.407.407 0 0 0-.087.076c-.045.047-.063.08-.064.116-.003.078-.037.13-.173.258-.02.018-.067.068-.105.11-.07.077-.128.113-.153.093-.019-.014.017-.145.048-.177.014-.015.022-.036.017-.048a.287.287 0 0 1 .03-.113.353.353 0 0 0 .031-.106.377.377 0 0 1 .037-.162c.006-.002.006-.031-.001-.065-.012-.056.015-.148.046-.16a.614.614 0 0 0 .106-.17c.044-.088.044-.243 0-.397a.319.319 0 0 1-.01-.082c.004-.077-.034-.202-.065-.22-.05-.028-.165-.023-.255.011-.077.03-.088.039-.114.095-.016.034-.026.072-.021.084.005.012-.015.067-.044.123-.048.091-.051.107-.031.15a.123.123 0 0 1 .003.103.176.176 0 0 0-.014.07c.003.008-.01.04-.03.07-.018.032-.03.068-.025.082.013.032-.045.23-.083.288-.016.024-.025.056-.02.07.013.035-.073.193-.162.297a1.46 1.46 0 0 0-.104.14.691.691 0 0 1-.195.198.76.76 0 0 0-.188.179.494.494 0 0 1-.09.089 4.508 4.508 0 0 0-.132.113.766.766 0 0 1-.126.088 1.613 1.613 0 0 0-.289.23.687.687 0 0 1-.118.088.688.688 0 0 0-.092.06 2.519 2.519 0 0 1-.427.235c-.126.055-.155.062-.215.057a.523.523 0 0 0-.134.008c-.098.021-.159.004-.215-.064a2.437 2.437 0 0 0-.084-.094c-.038-.04-.114-.274-.12-.372a.48.48 0 0 1 .038-.187.333.333 0 0 0 .02-.169.085.085 0 0 1-.002-.047c.005-.01-.013-.06-.045-.125-.05-.102-.055-.107-.128-.135a.45.45 0 0 1-.13-.083c-.043-.043-.063-.052-.088-.043a.192.192 0 0 1-.093-.005.19.19 0 0 0-.098-.002c-.046.017-.162.193-.168.254a1.336 1.336 0 0 1-.075.204c-.04.09-.075.198-.078.24a1.039 1.039 0 0 1-.166.393 1.07 1.07 0 0 0-.155.267.801.801 0 0 1-.157.23c-.057.06-.13.153-.16.204a.932.932 0 0 1-.115.15c-.032.032-.125.13-.205.218-.08.089-.223.243-.317.344-.094.1-.192.21-.22.242a2.73 2.73 0 0 1-.327.329 3.218 3.218 0 0 0-.138.108.589.589 0 0 1-.124.08 1.58 1.58 0 0 0-.178.1c-.148.093-.2.107-.276.07-.054-.025-.058-.03-.113-.176-.041-.108-.065-.155-.086-.167-.022-.012-.038-.049-.074-.16l-.045-.143-.1-.045-.1-.044-.152.06a1.995 1.995 0 0 0-.224.105c-.188.115-.266.154-.305.149-.041-.006-.154.048-.174.082a.398.398 0 0 1-.093.067.496.496 0 0 0-.117.09l-.104.134a.8.8 0 0 1-.236.216c-.056.032-.058.032-.061-.004a.3.3 0 0 0-.01-.053.159.159 0 0 1 .012-.069c.01-.029.021-.143.026-.255.004-.111.013-.221.02-.244a.236.236 0 0 0 .004-.09.642.642 0 0 1-.002-.121.397.397 0 0 0-.02-.142c-.022-.063-.03-.072-.095-.097-.039-.015-.08-.024-.09-.02-.042.016-.078.068-.077.108a.936.936 0 0 1-.04.177l-.076.26a.716.716 0 0 1-.16.317c-.076.094-.108.164-.175.378-.048.155-.131.35-.196.461-.057.098-.08.279-.039.314.015.013.032.021.039.019.024-.01.044.034.043.093 0 .078.035.122.127.155.057.021.065.03.06.058-.011.055.042.102.093.082.023-.008.048-.01.055-.005.031.024.095-.022.161-.115a.858.858 0 0 1 .11-.13c.03-.024.068-.096.117-.218.077-.192.163-.312.285-.4a1.37 1.37 0 0 0 .17-.185c.064-.08.169-.2.234-.269a.698.698 0 0 1 .283-.204c.157-.077.167-.08.233-.073.038.005.082.02.097.036.015.015.036.023.047.02.016-.006.024.007.039.069.01.042.02.107.02.144.004.08.038.174.082.226.037.044.099.052.212.027.054-.012.094-.007.172.021.101.037.103.037.227-.001a.647.647 0 0 1 .162-.034c.057.008.52-.215.56-.269a.297.297 0 0 1 .073-.061.247.247 0 0 0 .06-.047.258.258 0 0 1 .062-.047c.05-.03.084-.065.172-.178.06-.076.36-.4.377-.406.008-.003.07-.066.137-.14.068-.074.13-.137.14-.14a.228.228 0 0 0 .053-.05c.02-.023.071-.072.114-.109.042-.036.09-.083.107-.104.052-.065.22-.313.265-.39.024-.041.063-.1.087-.13a2.66 2.66 0 0 1 .328-.42.447.447 0 0 1 .063-.057l.036-.024.022.088c.017.065.032.095.059.12.068.06.12.126.208.26.02.03.046.062.059.07.012.006.06.047.105.09.094.088.23.151.345.158.07.005.083.001.164-.047.048-.029.135-.071.192-.094.062-.025.144-.072.204-.116.063-.048.147-.095.23-.13a1.79 1.79 0 0 0 .228-.116c.053-.033.164-.098.246-.143.082-.045.162-.095.179-.11a.306.306 0 0 1 .079-.045c.081-.03.162-.093.285-.221.105-.11.28-.265.313-.278.024-.009.074.022.086.054.015.04.007.125-.019.21a.189.189 0 0 0-.004.108c.012.032.007.056-.02.099a.166.166 0 0 0-.027.1.416.416 0 0 1-.032.147.913.913 0 0 0-.044.156.291.291 0 0 1-.076.162c-.057.065-.047.226.017.285.11.101.192.092.3-.034l.121-.138c.031-.034.071-.084.089-.11a.18.18 0 0 1 .051-.056c.01-.004.03-.034.044-.066a2.09 2.09 0 0 1 .222-.353 1.31 1.31 0 0 1 .141-.12.983.983 0 0 0 .126-.11c.04-.05.087-.15.08-.168a1.18 1.18 0 0 1 .12-.31.133.133 0 0 0 .03-.049.595.595 0 0 1 .117-.165c.028-.01.208-.226.223-.268a.84.84 0 0 1 .162-.248c.053-.052.138-.113.277-.197.028-.018.114-.09.19-.16s.147-.13.158-.135a.214.214 0 0 0 .055-.067.323.323 0 0 1 .13-.116c.053-.03.14-.086.196-.125.107-.075.322-.172.356-.162a.366.366 0 0 0 .11-.017c.05-.013.1-.017.113-.01.031.018.134.297.134.362 0 .041-.098.269-.12.277a.307.307 0 0 0-.033.09.29.29 0 0 1-.062.122c-.051.046-.137.18-.13.201a.511.511 0 0 1-.045.134l-.052.118.037.086c.03.07.043.086.071.089a.787.787 0 0 1 .109.027c.04.013.082.02.092.017.024-.01.085.015.093.038.004.01.021.016.039.016.017-.001.035.01.04.023.013.034.045.043.111.031.105-.019.38-.224.433-.324.043-.081.073-.111.174-.173a.51.51 0 0 0 .235-.261.541.541 0 0 1 .087-.14.106.106 0 0 0 .036-.066.646.646 0 0 1 .137-.28c.061-.05.313-.147.363-.14.034.006.043.018.073.097.03.078.03.094.01.123-.043.058-.049.184-.015.31.043.16.088.262.124.28a.096.096 0 0 1 .04.044.074.074 0 0 0 .04.039.215.215 0 0 1 .066.049.13.13 0 0 0 .099.04l.15.01a.73.73 0 0 0 .143 0c.175-.028.453-.203.535-.338a.504.504 0 0 1 .1-.117.36.36 0 0 0 .075-.076.13.13 0 0 1 .043-.046.32.32 0 0 0 .067-.057.31.31 0 0 1 .069-.058.192.192 0 0 0 .054-.045.204.204 0 0 1 .05-.043c.009-.003.023-.023.03-.043.02-.051.161-.203.242-.26.073-.052.105-.096.168-.233.042-.09.13-.208.166-.222.03-.01.095-.097.095-.124 0-.013.012-.028.027-.034a.07.07 0 0 0 .036-.038.067.067 0 0 1 .034-.036.43.43 0 0 0 .084-.066c.058-.055.063-.057.118-.053.055.005.06.009.085.074.021.057.036.074.085.098.033.017.11.062.17.1.101.065.112.077.15.16.038.086.041.089.149.14.06.028.13.056.157.063.071.02.21-.002.375-.057.082-.028.21-.062.285-.076a.466.466 0 0 0 .198-.067c.035-.023.13-.065.21-.094.152-.054.192-.08.244-.158a.157.157 0 0 1 .053-.052.541.541 0 0 0 .143-.112.182.182 0 0 1 .05-.041c.03-.011.115-.183.123-.247.008-.068.106-.339.133-.366.01-.011.02-.04.02-.064l.002-.068a.42.42 0 0 1 .005-.05.684.684 0 0 0 .006-.074c0-.026.004-.068.006-.093a.242.242 0 0 0-.014-.095 1.954 1.954 0 0 1-.074-.328c-.006-.054-.013-.069-.037-.082a.78.78 0 0 1-.12-.164c-.087-.145-.09-.147-.175-.182-.047-.019-.09-.043-.093-.053a.186.186 0 0 0-.06-.052.259.259 0 0 1-.055-.041 1.118 1.118 0 0 0-.155-.072.975.975 0 0 1-.183-.092.288.288 0 0 0-.132-.042 4.148 4.148 0 0 1-.212-.032.732.732 0 0 0-.173-.017Zm.295.545c.06.006.088.02.15.077.04.038.134.099.206.135a.531.531 0 0 1 .14.087.086.086 0 0 0 .037.036c.016.009.065.08.11.16.044.08.086.152.094.162a.49.49 0 0 1 .002.159l-.015.17a.73.73 0 0 0 .004.089c.006.06.003.065-.074.126a.274.274 0 0 0-.1.119.412.412 0 0 1-.073.114.38.38 0 0 0-.063.087c-.007.024-.04.04-.159.086a.955.955 0 0 1-.16.052 2.543 2.543 0 0 0-.269.09c-.238.088-.262.094-.322.084a.268.268 0 0 0-.083-.005c-.024.01-.074-.018-.103-.056a.215.215 0 0 0-.063-.051c-.032-.016-.047-.04-.073-.109a.653.653 0 0 1-.053-.2.49.49 0 0 0-.016-.089.261.261 0 0 1-.003-.11.269.269 0 0 0 0-.104.458.458 0 0 1 .013-.157.57.57 0 0 0 .02-.14.537.537 0 0 1 .09-.258.938.938 0 0 0 .087-.155l.051-.11.174-.062c.182-.064.235-.097.25-.156.012-.048.106-.081.2-.071zM13.892 5.829a.391.391 0 0 0-.155.034l-.125.042-.06.099-.061.099.035.11c.05.156.068.182.127.192.027.005.06.023.071.041.039.056.09.094.114.085a.111.111 0 0 1 .06.002c.081.024.214-.09.187-.162a.253.253 0 0 1 .008-.105.275.275 0 0 0 .01-.097.296.296 0 0 1-.005-.078.374.374 0 0 0-.07-.211.22.22 0 0 0-.096-.044.226.226 0 0 0-.04-.007zm5.129 3.646c-.262.009-.6.042-.662.071a.297.297 0 0 1-.092.027c-.022.002-.043.01-.048.017-.01.019-.095.024-.114.007-.018-.017-.18-.013-.256.006a.205.205 0 0 1-.125-.008.276.276 0 0 0-.154-.005 7.426 7.426 0 0 1-.356.042c-.275.027-.47.063-.523.096a.181.181 0 0 1-.07.021.13.13 0 0 0-.065.024.296.296 0 0 1-.104.036.495.495 0 0 0-.14.051.316.316 0 0 1-.08.038.18.18 0 0 0-.065.037.322.322 0 0 1-.107.049.233.233 0 0 0-.105.057.146.146 0 0 1-.089.047.441.441 0 0 0-.171.055.072.072 0 0 1-.039.014c-.03.001-.136.076-.233.165-.128.117-.232.201-.249.202-.009 0-.024.011-.033.023-.027.037-.098.067-.184.078-.064.008-.09.019-.119.05a.163.163 0 0 1-.049.04c-.026.002-.206.149-.282.23a.439.439 0 0 1-.1.09.354.354 0 0 0-.089.076.775.775 0 0 1-.12.105.287.287 0 0 0-.066.052.476.476 0 0 1-.244.122c-.06.004-.072.01-.138.082a.495.495 0 0 0-.09.13c-.027.079-.23.272-.32.306-.013.004-.036.037-.05.072-.028.064-.124.145-.173.148a.172.172 0 0 0-.068.04.24.24 0 0 1-.053.038c-.025.001-.1.082-.107.115a.73.73 0 0 1-.122.166c-.112.125-.163.202-.161.243 0 .011-.016.034-.036.051-.205.167-.403.391-.425.48a.412.412 0 0 1-.069.108l-.06.072.015.12c.011.1.023.137.066.212.047.082.061.095.133.124.127.052.147.052.211 0 .053-.042.056-.05.052-.116a.303.303 0 0 0-.028-.113.459.459 0 0 1-.037-.13l-.013-.087.109-.12a.713.713 0 0 0 .107-.135c0-.01.008-.023.019-.03a.642.642 0 0 0 .113-.164 7.2 7.2 0 0 1 .48-.54.302.302 0 0 0 .075-.096.549.549 0 0 1 .113-.134c.053-.05.137-.13.186-.18.15-.149.222-.207.31-.254a.864.864 0 0 1 .094-.046c.015 0 .203-.184.24-.235.021-.027.046-.05.056-.051.01 0 .058-.034.106-.073l.108-.088c.102-.074.173-.13.185-.148a.585.585 0 0 1 .116-.073c.226-.12.303-.172.43-.29a.896.896 0 0 1 .187-.12 2.07 2.07 0 0 0 .19-.105.398.398 0 0 1 .084-.047.11.11 0 0 0 .044-.022.293.293 0 0 1 .085-.034.368.368 0 0 0 .077-.026.584.584 0 0 1 .144-.065c.011 0 .029-.012.039-.025a.78.78 0 0 1 .244-.132.275.275 0 0 0 .082-.028.714.714 0 0 1 .285-.092.2.2 0 0 0 .09-.024.317.317 0 0 1 .103-.035.454.454 0 0 0 .121-.04c.04-.023.05-.023.125-.004a.258.258 0 0 0 .169-.001.79.79 0 0 1 .139-.024c.183-.005.237-.012.31-.042.044-.018.058-.018.103 0 .043.019.07.019.154.004.055-.01.152-.02.214-.025.186-.012.478-.05.503-.064a.526.526 0 0 1 .231.031.77.77 0 0 0 .18-.006.903.903 0 0 1 .23-.003c.034.007.146.014.249.014.141 0 .194.006.214.022.02.016.061.02.169.017.192-.007.407.019.46.054a.829.829 0 0 0 .121.058.738.738 0 0 1 .154.09c.04.032.093.066.117.077a.69.69 0 0 1 .112.075.354.354 0 0 0 .083.056.66.66 0 0 1 .115.075c.186.139.237.174.288.199.095.046.235.203.364.408.081.129.208.434.22.531a.57.57 0 0 0 .035.13.43.43 0 0 1 .028.121c.003.037.018.1.035.14a.68.68 0 0 1 .072.328v.148c0 .078.036.402.051.462.015.057.015.083 0 .123a.296.296 0 0 0-.015.096.566.566 0 0 1-.014.118c-.027.123-.035.343-.015.403.03.086.027.137-.01.174-.022.024-.035.063-.044.13-.012.096-.03.131-.14.275a1.027 1.027 0 0 0-.13.222c0 .007-.011.024-.026.04-.015.014-.027.034-.027.042a.137.137 0 0 1-.025.053.13.13 0 0 0-.024.06c.002.045-.077.155-.186.263a.782.782 0 0 1-.122.107c-.008 0-.073.066-.144.147-.13.146-.188.197-.223.2a.306.306 0 0 0-.085.076 1.5 1.5 0 0 1-.227.21.455.455 0 0 0-.067.045.504.504 0 0 1-.09.055.089.089 0 0 0-.043.039.447.447 0 0 1-.158.123.338.338 0 0 0-.085.052.4.4 0 0 1-.124.063c-.031.007-.064.023-.073.035a.066.066 0 0 1-.044.024.479.479 0 0 0-.131.106.86.86 0 0 1-.115.106.512.512 0 0 0-.088.067c-.102.087-.163.121-.205.116a.408.408 0 0 0-.214.064 1.34 1.34 0 0 1-.187.088.95.95 0 0 0-.151.069c-.007.007-.027.013-.044.014a.126.126 0 0 0-.063.03.817.817 0 0 1-.344.163.203.203 0 0 0-.084.026.965.965 0 0 1-.207.105.475.475 0 0 0-.077.031.471.471 0 0 1-.076.032.551.551 0 0 0-.19.104c-.118.09-.133.099-.214.112-.044.008-.084.02-.088.027-.004.007-.027.014-.051.015a.123.123 0 0 0-.073.033.41.41 0 0 1-.124.063.423.423 0 0 0-.123.062.266.266 0 0 1-.091.049 5.3 5.3 0 0 0-.133.045.962.962 0 0 1-.14.037.554.554 0 0 0-.126.04.63.63 0 0 1-.133.042.375.375 0 0 0-.103.033c-.046.031-.142.063-.167.056-.013-.004-.035.007-.054.031-.022.026-.041.036-.057.031-.014-.004-.04.005-.062.023a.467.467 0 0 1-.12.056 1.093 1.093 0 0 0-.135.053c-.053.027-.053.027-.082-.006-.034-.04-.04-.093-.016-.157a.918.918 0 0 0 .03-.12.381.381 0 0 1 .055-.13.364.364 0 0 0 .075-.209.595.595 0 0 1 .093-.248.685.685 0 0 0 .062-.153.993.993 0 0 1 .043-.13.193.193 0 0 0 .018-.067c0-.013.012-.043.029-.066.049-.069.062-.106.052-.14-.007-.02 0-.051.016-.083a.217.217 0 0 0 .024-.094c-.001-.025.004-.05.012-.055.007-.005.012-.034.01-.065-.001-.03.003-.059.01-.064.008-.005.014-.03.012-.055a.144.144 0 0 1 .018-.074.105.105 0 0 0 .018-.053.264.264 0 0 1 .023-.08c.035-.081.058-.148.073-.222a.749.749 0 0 1 .054-.144.296.296 0 0 0 .037-.168.396.396 0 0 1 .023-.15.882.882 0 0 0 .033-.096.18.18 0 0 1 .039-.066c.027-.03.05-.114.073-.273a.112.112 0 0 1 .024-.057.077.077 0 0 0 .017-.052.177.177 0 0 1 .032-.084c.029-.042.032-.06.022-.11-.01-.049-.006-.075.02-.133a.333.333 0 0 0 .03-.097c0-.015.004-.038.01-.052l.058-.137a.652.652 0 0 1 .059-.122c.007-.005.012-.02.01-.034 0-.014.01-.041.024-.06a.33.33 0 0 0 .037-.083.402.402 0 0 1 .045-.094.28.28 0 0 0 .038-.127.801.801 0 0 1 .029-.15.415.415 0 0 0 .02-.111.785.785 0 0 1 .048-.236.46.46 0 0 0 .026-.085.575.575 0 0 1 .025-.086.661.661 0 0 0 .026-.254.074.074 0 0 1 .013-.068c.019-.023.022-.049.015-.118-.015-.137-.017-.313-.004-.33a.446.446 0 0 0 .028-.098.438.438 0 0 1 .038-.116l.053-.082a.184.184 0 0 0 .03-.097c-.003-.052-.06-.159-.084-.157a.102.102 0 0 1-.042-.02c-.054-.045-.18.027-.177.101a.17.17 0 0 1-.016.06 1.552 1.552 0 0 0-.065.255c-.007.034-.019.062-.026.062-.024.001-.05.104-.047.178a.19.19 0 0 1-.03.127c-.029.047-.033.071-.03.167a.385.385 0 0 1-.01.132.37.37 0 0 0-.02.12c-.001.055-.01.154-.017.22a1.467 1.467 0 0 0-.01.194c.002.049-.003.08-.016.093a.063.063 0 0 0-.02.042.12.12 0 0 1-.026.06c-.085.118-.128.221-.124.3.001.025-.004.05-.01.055-.008.005-.02.037-.026.07a.856.856 0 0 1-.05.144.325.325 0 0 0-.033.148.52.52 0 0 1-.022.146 1.194 1.194 0 0 0-.033.138.376.376 0 0 1-.047.118.526.526 0 0 0-.054.115.162.162 0 0 1-.026.061.394.394 0 0 0-.046.092.567.567 0 0 1-.065.12c-.027.034-.03.045-.014.078a.453.453 0 0 1-.009.242.314.314 0 0 0-.02.097.433.433 0 0 1-.03.123.945.945 0 0 0-.053.262.187.187 0 0 1-.028.08.291.291 0 0 0-.036.094 1.72 1.72 0 0 1-.03.115c-.01.028-.023.08-.032.115a.335.335 0 0 1-.03.087.189.189 0 0 0-.023.062.281.281 0 0 1-.05.095c-.084.107-.125.204-.122.287a.193.193 0 0 1-.017.079.167.167 0 0 0-.017.067c0 .016-.018.07-.042.117a.589.589 0 0 0-.05.141.53.53 0 0 1-.037.122.732.732 0 0 0-.043.138c-.008.04-.03.113-.049.163a.613.613 0 0 0-.034.106c0 .008-.01.033-.024.054a.28.28 0 0 0-.032.08.35.35 0 0 1-.039.095.2.2 0 0 0-.03.077c0 .013-.004.028-.011.033-.007.004-.015.029-.018.055a.942.942 0 0 1-.058.164c-.059.135-.134.217-.217.235a.167.167 0 0 0-.073.034.192.192 0 0 1-.086.034 4.88 4.88 0 0 0-.153.03 1.5 1.5 0 0 1-.15.023.664.664 0 0 0-.152.036 1.663 1.663 0 0 1-.194.055.615.615 0 0 0-.16.056.707.707 0 0 1-.258.087.315.315 0 0 0-.09.025.764.764 0 0 1-.148.037c-.165.03-.332.079-.388.112a.222.222 0 0 1-.083.028.63.63 0 0 0-.137.043.574.574 0 0 1-.204.046c-.096.006-.111.01-.138.043-.023.027-.051.04-.11.05a.579.579 0 0 0-.107.026 1.215 1.215 0 0 1-.264.093.553.553 0 0 0-.158.06.42.42 0 0 1-.11.055 1.092 1.092 0 0 0-.136.058.308.308 0 0 1-.108.033.361.361 0 0 0-.124.042.58.58 0 0 1-.08.04.384.384 0 0 0-.069.066c-.048.053-.072.067-.129.079a.685.685 0 0 0-.155.06.429.429 0 0 1-.122.048.283.283 0 0 0-.084.025.617.617 0 0 1-.129.038c-.109.02-.313.13-.358.193-.03.04-.2.102-.305.11a.166.166 0 0 0-.123.054c-.051.047-.052.05-.048.145.006.108.027.154.08.17a.58.58 0 0 0 .302-.032.774.774 0 0 1 .125-.043.404.404 0 0 0 .093-.033.294.294 0 0 1 .052-.023.37.37 0 0 0 .065-.046.22.22 0 0 1 .095-.048.293.293 0 0 0 .1-.04.495.495 0 0 1 .123-.05.222.222 0 0 0 .096-.048.563.563 0 0 1 .13-.08.977.977 0 0 0 .124-.064.148.148 0 0 1 .068-.023.183.183 0 0 0 .088-.041c.033-.03.056-.038.085-.033a.33.33 0 0 0 .127-.027.72.72 0 0 1 .108-.035.637.637 0 0 0 .127-.062.79.79 0 0 1 .158-.071.256.256 0 0 0 .097-.05.471.471 0 0 1 .219-.098c.05-.013.11-.032.132-.041.023-.01.08-.029.126-.042a3.21 3.21 0 0 0 .293-.097c.045-.022.16-.049.279-.064a.416.416 0 0 0 .128-.03.078.078 0 0 1 .05-.015.348.348 0 0 0 .183-.06.433.433 0 0 1 .131-.048c.04-.007.1-.027.132-.045a.296.296 0 0 1 .084-.034 2.054 2.054 0 0 1 .29-.08c.34-.076.37-.084.386-.098a.463.463 0 0 1 .12-.028.357.357 0 0 0 .125-.036.1.1 0 0 1 .056-.022.495.495 0 0 0 .078-.014c.03-.009.048-.005.063.01.016.018.014.04-.018.141a.994.994 0 0 0-.037.134.522.522 0 0 1-.087.107c-.07.073-.086.1-.085.134a.243.243 0 0 1-.036.108.203.203 0 0 0-.036.135.198.198 0 0 1-.015.098.14.14 0 0 0-.018.071c.002.048-.095.398-.124.45a.129.129 0 0 0-.018.056.2.2 0 0 1-.039.08.195.195 0 0 0-.037.088.91.91 0 0 1-.1.345c-.01.02-.03.066-.045.102a2.946 2.946 0 0 1-.058.128.72.72 0 0 0-.045.183.434.434 0 0 1-.055.188.394.394 0 0 0-.046.11.116.116 0 0 1-.025.058c-.01.01-.017.039-.016.065a.242.242 0 0 1-.017.094.154.154 0 0 0-.01.093.156.156 0 0 1-.008.087.957.957 0 0 0-.09.29.254.254 0 0 1-.03.11.86.86 0 0 0-.044.095c-.007.02-.027.066-.044.103a.295.295 0 0 0-.03.107.446.446 0 0 1-.077.194.171.171 0 0 0-.02.088.322.322 0 0 1-.015.102.625.625 0 0 0-.023.127.859.859 0 0 1-.049.25c-.007.01-.009.03-.003.047.005.016.002.034-.006.04-.008.005-.014.024-.013.042a.073.073 0 0 1-.018.052.184.184 0 0 0-.033.07.637.637 0 0 1-.05.12.507.507 0 0 0-.046.138c-.006.04-.023.107-.036.148a.46.46 0 0 0-.022.141.486.486 0 0 1-.008.117 4.895 4.895 0 0 0-.024.102c-.01.048-.073.227-.097.278a.064.064 0 0 0-.002.046c.005.012-.009.048-.032.083-.036.055-.04.073-.035.16.003.053 0 .11-.008.125-.01.022-.007.049.013.103.033.095.074.14.158.177.081.035.104.036.165.007.074-.036.091-.08.08-.207a.603.603 0 0 1 .003-.161c.026-.09.047-.231.044-.287-.001-.03.004-.059.011-.064.008-.005.012-.036.01-.069a.19.19 0 0 1 .016-.09.5.5 0 0 0 .039-.102.81.81 0 0 1 .057-.14.239.239 0 0 0 .033-.13c-.002-.044.005-.07.024-.09a.488.488 0 0 0 .087-.224.1.1 0 0 1 .025-.065c.019-.02.026-.046.023-.088-.002-.034.003-.065.01-.07.01-.007.009-.02-.002-.038-.014-.022-.013-.029.009-.036.034-.01.057-.076.055-.152 0-.035.01-.08.024-.103.026-.043.032-.113.025-.333a.465.465 0 0 1 .006-.127.062.062 0 0 0 .009-.036.19.19 0 0 1 .016-.066c.023-.053.068-.222.066-.25a.43.43 0 0 1 .057-.109.405.405 0 0 0 .071-.167.464.464 0 0 1 .032-.116.497.497 0 0 0 .034-.115 1.82 1.82 0 0 1 .068-.305.176.176 0 0 0 .016-.059.49.49 0 0 1 .037-.106.436.436 0 0 0 .037-.11 1.506 1.506 0 0 1 .112-.266.503.503 0 0 0 .013-.124c.003-.113.041-.289.072-.33a.096.096 0 0 0 .016-.053.152.152 0 0 1 .009-.057c.031-.073.051-.134.067-.198.02-.09.043-.165.057-.199a.146.146 0 0 0 .01-.054c-.003-.036.016-.079.058-.135a.147.147 0 0 0 .029-.078c-.002-.037.044-.137.068-.149.027-.012.075-.081.074-.105 0-.013.008-.033.02-.043a.043.043 0 0 0 .01-.045c-.006-.016.001-.044.017-.07a.169.169 0 0 0 .025-.082.508.508 0 0 1 .052-.192.235.235 0 0 0 .045-.115.484.484 0 0 1 .08-.204.308.308 0 0 0 .044-.12c-.005-.096.076-.193.18-.213a.251.251 0 0 0 .09-.033.16.16 0 0 1 .049-.028c.015-.005.062-.025.104-.044a1.06 1.06 0 0 1 .122-.05.223.223 0 0 0 .062-.028.31.31 0 0 1 .097-.028.345.345 0 0 0 .156-.068c.065-.046.083-.053.133-.048.042.005.064 0 .08-.017a.862.862 0 0 1 .301-.122.451.451 0 0 0 .131-.063.365.365 0 0 1 .102-.053.132.132 0 0 0 .056-.023.317.317 0 0 1 .096-.035c.036-.007.073-.022.081-.034a.068.068 0 0 1 .045-.023.09.09 0 0 0 .05-.022.54.54 0 0 1 .135-.056c.062-.02.146-.055.187-.079.114-.066.12-.069.157-.07.02-.002.039-.01.043-.017.004-.009.018-.016.03-.016a.146.146 0 0 0 .058-.03.66.66 0 0 1 .098-.056c.034-.016.078-.038.097-.049a.59.59 0 0 1 .145-.035.477.477 0 0 0 .265-.115 2.17 2.17 0 0 1 .186-.115.738.738 0 0 1 .25-.1c.197-.037.252-.052.277-.078a.12.12 0 0 1 .067-.027c.062-.004.12-.035.248-.136l.155-.12a1.08 1.08 0 0 0 .115-.098.42.42 0 0 1 .214-.105c.062-.012.153-.073.302-.202a.876.876 0 0 1 .13-.09.382.382 0 0 0 .094-.069c.014-.017.031-.032.038-.033a.434.434 0 0 0 .085-.054.401.401 0 0 1 .087-.054c.008 0 .022-.011.03-.023a.064.064 0 0 1 .039-.024c.026-.001.138-.105.282-.263.199-.217.321-.344.385-.398.034-.03.117-.112.184-.183a.97.97 0 0 1 .148-.14c.033-.013.11-.132.152-.234a2.16 2.16 0 0 1 .062-.134 1.17 1.17 0 0 0 .05-.102.646.646 0 0 1 .052-.094.19.19 0 0 0 .033-.07c0-.01.028-.076.063-.146.034-.07.07-.15.077-.178a.714.714 0 0 1 .06-.13c.055-.094.065-.158.06-.38-.002-.094 0-.18.004-.192a.936.936 0 0 0 .007-.14c0-.075.011-.154.03-.216.03-.1.035-.18.012-.192-.019-.01-.055-.188-.059-.29a2.398 2.398 0 0 0-.071-.521 1.086 1.086 0 0 1-.04-.168 2.548 2.548 0 0 0-.123-.441 2.67 2.67 0 0 1-.117-.25.724.724 0 0 1-.075-.167c-.066-.188-.086-.223-.18-.317-.106-.107-.316-.286-.334-.285a.623.623 0 0 1-.107-.072.377.377 0 0 0-.125-.071.33.33 0 0 1-.118-.077 1.379 1.379 0 0 0-.156-.118.559.559 0 0 1-.087-.061.478.478 0 0 0-.111-.06.373.373 0 0 1-.125-.078c-.037-.047-.1-.08-.149-.077a.207.207 0 0 1-.087-.03.327.327 0 0 0-.101-.04.19.19 0 0 1-.08-.032c-.025-.02-.043-.024-.079-.014-.124.032-.136.032-.203.005-.06-.025-.08-.027-.18-.013a.332.332 0 0 1-.141.001.757.757 0 0 0-.182-.012.602.602 0 0 1-.165-.01c-.009-.008-.054-.012-.1-.01a2.56 2.56 0 0 1-.193-.003 2.472 2.472 0 0 0-.222-.001zm-14.402.546c.014 0 .022.015.04.061.014.038.033.115.043.172a1.2 1.2 0 0 0 .05.193c.02.05.039.133.043.184.004.051.014.123.02.16.022.113.037.265.028.284-.004.01.003.048.017.084.015.038.02.075.012.088-.017.03-.015.127.005.272.01.062.016.135.015.162a.584.584 0 0 0 .019.224c.037.145.019.186-.148.346a4.899 4.899 0 0 0-.156.157 2.742 2.742 0 0 1-.326.313.613.613 0 0 0-.114.104 9.06 9.06 0 0 0-.356.409.816.816 0 0 1-.09.096c-.059.054-.099.08-.104.068a.607.607 0 0 1 .039-.23 1.7 1.7 0 0 0 .051-.204c.008-.048.03-.137.05-.199a.635.635 0 0 0 .035-.149.712.712 0 0 1 .04-.162c.023-.068.051-.158.062-.2a2.94 2.94 0 0 1 .124-.297c.057-.123.107-.242.11-.265a.62.62 0 0 1 .04-.123.557.557 0 0 0 .032-.086 5.87 5.87 0 0 1 .181-.663c.034-.084.068-.223.078-.317.004-.046.01-.095.013-.11a.844.844 0 0 0 .008-.085c.004-.083.083-.268.122-.283a.046.046 0 0 1 .017-.004zm18.378 1.366c-.008 0-.013.015-.012.032.002.026.004.028.014.01.017-.028.016-.043-.002-.042zm-.265 4.524a1.41 1.41 0 0 0-.116.01l-.15.02-.042.056a.295.295 0 0 1-.087.078.88.88 0 0 0-.156.144c-.1.11-.194.179-.251.182a.323.323 0 0 0-.09.055.327.327 0 0 1-.089.054c-.033.002-.173.12-.213.179-.02.03-.068.108-.104.172a.423.423 0 0 1-.166.184c-.102.069-.247.233-.244.277a.353.353 0 0 1-.07.111.897.897 0 0 0-.089.122.814.814 0 0 1-.066.103.407.407 0 0 0-.05.078.728.728 0 0 1-.073.109.533.533 0 0 0-.072.114c0 .008-.01.028-.026.043-.015.015-.026.039-.025.054.002.04-.033.11-.064.128-.015.01-.027.03-.026.044 0 .015-.005.031-.013.037a.92.92 0 0 0-.105.167.578.578 0 0 1-.1.107.404.404 0 0 0-.122.163.573.573 0 0 0-.04.11.268.268 0 0 1-.057.081c-.062.07-.115.15-.113.172a.614.614 0 0 1-.058.11.698.698 0 0 0-.069.15.359.359 0 0 1-.051.11.25.25 0 0 0-.04.068.23.23 0 0 1-.046.066.211.211 0 0 0-.046.07.264.264 0 0 1-.031.072.809.809 0 0 0-.052.12.406.406 0 0 1-.065.115c-.025.029-.044.067-.043.085.001.018-.018.06-.043.094-.025.034-.06.094-.08.135a1.46 1.46 0 0 1-.177.272c-.03.037-.085.116-.124.175l-.07.109.014.235c.011.207.017.241.043.28.069.1.191.12.313.05.073-.042.095-.08.09-.158-.003-.063.042-.152.128-.254.074-.087.216-.216.26-.235a.136.136 0 0 0 .047-.052c.066-.12.227-.287.278-.29.033 0 .077-.028.121-.074l.037-.038.163.01c.163.01.164.01.238.068.089.07.094.096.047.209-.035.083-.069.114-.167.155-.111.047-.143.085-.214.258-.062.151-.065.163-.053.246.007.048.022.118.032.157a.208.208 0 0 1 .006.122c-.02.076-.003.112.09.197.075.068.087.074.128.064a.381.381 0 0 0 .094-.042c.046-.028.06-.03.205-.022.233.012.583-.005.626-.03a.174.174 0 0 1 .065-.022.091.091 0 0 0 .044-.014.83.83 0 0 1 .243-.066.308.308 0 0 0 .162-.067.336.336 0 0 1 .189-.072.225.225 0 0 0 .049-.039c.031-.03.066-.041.171-.06a1.16 1.16 0 0 0 .16-.037 1.65 1.65 0 0 1 .345-.053c.082-.006.118-.015.156-.04a.523.523 0 0 1 .132-.055c.164-.042.191-.055.248-.12.059-.068.071-.075.174-.095.037-.007.068-.021.072-.033.004-.012.022-.022.04-.023a.074.074 0 0 0 .051-.024.065.065 0 0 1 .043-.024c.014 0 .029-.008.033-.016a.48.48 0 0 1 .1-.064.795.795 0 0 0 .132-.086.375.375 0 0 1 .191-.092.256.256 0 0 0 .099-.043c.033-.03.106-.044.108-.022a.717.717 0 0 1-.038.104c-.033.079-.037.102-.026.16.007.037.018.07.023.073.005.003.014.092.018.197.006.124.016.21.03.244.026.066.238.235.349.28.16.064.276.101.39.123.133.026.416.01.48-.028a.228.228 0 0 1 .072-.029c.014 0 .058-.02.098-.044A.568.568 0 0 1 26 21.53a.326.326 0 0 0 .119-.045.341.341 0 0 1 .236-.057l.09.018c.081.014.207-.077.255-.186.022-.05.102-.09.193-.096.07-.005.087-.011.098-.035.056-.125.165-.193.35-.22.098-.013.118-.012.143.008.016.013.03.033.03.044.002.028.078.123.172.215a.565.565 0 0 0 .224.137c.215.088.287.099.534.08a5.75 5.75 0 0 1 .453-.01c.241.006.246.005.281-.026a.139.139 0 0 1 .053-.032c.01 0 .036-.012.06-.025a.824.824 0 0 1 .236-.077.41.41 0 0 0 .128-.062.841.841 0 0 1 .18-.088.915.915 0 0 0 .157-.067.317.317 0 0 1 .112-.042.734.734 0 0 0 .213-.072c.017-.009.037-.012.045-.007.008.004.043-.014.078-.042.035-.027.08-.06.1-.072.02-.012.073-.049.118-.082.094-.07.146-.087.173-.058.013.013.014.023.004.03-.008.006-.013.024-.012.041a.104.104 0 0 1-.079.104.272.272 0 0 0-.097.071.249.249 0 0 1-.073.061c-.036.003-.13.099-.129.131.001.02-.02.057-.054.094a.469.469 0 0 0-.11.175c-.012.028-.045.09-.072.136-.087.15-.051.26.107.334a.75.75 0 0 1 .11.061c.038.03.168.04.21.016a.456.456 0 0 0 .15-.187c.03-.082.07-.1.213-.095.103.003.118 0 .182-.037a.52.52 0 0 0 .151-.151.476.476 0 0 1 .1-.112c.009 0 .02-.011.024-.023.004-.013.041-.04.082-.062a.384.384 0 0 0 .09-.061.064.064 0 0 1 .042-.023.193.193 0 0 0 .064-.024c.039-.022.172-.045.383-.064.091-.009.107-.014.143-.053.036-.038.051-.044.126-.048.076-.004.089 0 .118.032.11.124.108.122.112.211a.7.7 0 0 1-.017.168.338.338 0 0 0 .021.244c.03.053.203.13.309.138a.277.277 0 0 0 .151-.028.487.487 0 0 1 .146-.035c.04-.001.185-.016.324-.033.203-.025.26-.036.288-.058a.711.711 0 0 1 .265-.073c.05-.003.349-.119.453-.176a.341.341 0 0 1 .094-.039.167.167 0 0 0 .071-.039c.064-.054.283-.168.43-.223a.66.66 0 0 0 .198-.109.91.91 0 0 1 .201-.147c.009 0 .024-.01.033-.023a.352.352 0 0 1 .135-.079.312.312 0 0 0 .082-.059.719.719 0 0 1 .094-.075.592.592 0 0 0 .101-.094c.064-.074.124-.101.14-.063.007.013.003.034-.007.047-.026.034 0 .378.033.443l.034.066a.3.3 0 0 0 .024.042.49.49 0 0 1 .034.066c.01.025.042.07.07.102a.254.254 0 0 1 .052.075c.002.026.203.194.258.217a.65.65 0 0 1 .1.055c.046.03.065.035.15.03.055-.003.159-.02.232-.04a3.53 3.53 0 0 1 .3-.06c.209-.03.255-.054.295-.15.024-.056.04-.074.094-.1l.093-.046c.015-.007.086-.045.158-.085.082-.044.176-.082.25-.101.204-.052.336-.108.597-.255.144-.081.213-.11.444-.188.042-.015.101-.037.131-.05.204-.089.215-.092.254-.069.034.02.037.028.031.082a.244.244 0 0 1-.017.074.302.302 0 0 0-.017.086.458.458 0 0 1-.07.199c-.012.02-.01.03.009.049a.186.186 0 0 1 .035.071c.006.027.04.084.073.128a.35.35 0 0 1 .062.106.06.06 0 0 0 .022.042c.01.008.03.04.043.073.03.08.206.235.274.244.027.003.08.029.12.056.055.04.09.052.15.056.046.004.1.02.13.038.05.03.059.031.15.013a3.05 3.05 0 0 1 .36-.026c.217-.005.278-.011.353-.035l.147-.046c.054-.016.148-.053.268-.104a2.68 2.68 0 0 0 .251-.133l.101-.059a1.16 1.16 0 0 0 .16-.117c.043-.04.143-.114.22-.167.136-.093.182-.133.458-.394.137-.13.3-.257.333-.259.044-.002.07.041.064.106a.283.283 0 0 0 .022.133.333.333 0 0 1 .024.134c-.004.063-.002.065.11.174.125.12.153.131.284.122.06-.004.096.001.13.02.057.031.08.032.132.003a.995.995 0 0 1 .255-.117.83.83 0 0 0 .265-.124c.036-.025.07-.043.078-.04a.847.847 0 0 1 .138.155c0 .006.05.057.113.114a.55.55 0 0 1 .113.126c0 .013.013.022.03.02.017 0 .043.006.06.013.02.01.12.009.283-.002.225-.014.269-.02.41-.065a.793.793 0 0 1 .297-.05c.14 0 .154-.003.367-.077a.477.477 0 0 0 .096-.048l.116-.081c.118-.083.443-.258.483-.26a.983.983 0 0 0 .243-.158c.163-.145.243-.208.321-.254.154-.09.381-.272.472-.375a.325.325 0 0 1 .072-.07c.007 0 .04-.02.073-.046a.354.354 0 0 1 .072-.046c.006 0 .022-.014.035-.03a.089.089 0 0 1 .049-.032c.046-.003.057.028.048.133a.605.605 0 0 0 .001.143.09.09 0 0 1-.016.081.14.14 0 0 0-.024.074c0 .02-.004.04-.011.045-.027.018-.026.13.002.178.021.036.025.063.021.132a2.411 2.411 0 0 0-.003.172.248.248 0 0 1-.028.14.467.467 0 0 0-.04.169c-.01.123-.03.157-.118.21a3.099 3.099 0 0 1-.452.173.175.175 0 0 0-.068.026.362.362 0 0 1-.162.06.589.589 0 0 0-.12.03 2.886 2.886 0 0 1-.258.063c-.233.048-.299.064-.35.09l-.07.033a2.372 2.372 0 0 1-.11.046 3.482 3.482 0 0 0-.16.068.807.807 0 0 1-.153.05.647.647 0 0 0-.304.182 1.232 1.232 0 0 1-.15.113 6.625 6.625 0 0 0-.251.177c-.083.06-.194.137-.247.169-.107.065-.184.14-.182.175.002.04-.062.164-.12.23l-.054.063-.004.167c-.005.239-.002.28.017.317.01.018.027.07.038.114.018.076.028.09.125.174.083.073.116.092.151.092l.188-.005c.077-.003.18 0 .227.007.047.007.146.01.22.006a.783.783 0 0 1 .163.005c.07.023.207-.01.346-.082.041-.022.108-.05.15-.065a.62.62 0 0 0 .117-.057c.088-.06.402-.237.463-.26a.941.941 0 0 1 .139-.037c.096-.016.138-.041.255-.152.052-.049.128-.108.168-.13.137-.08.223-.187.4-.5l.042-.071a.149.149 0 0 0 .023-.061.41.41 0 0 1 .077-.115c.091-.11.11-.144.096-.184a.266.266 0 0 1 .037-.161.21.21 0 0 0 .024-.08c.01-.075.032-.113.123-.213a.38.38 0 0 1 .137-.105c.088-.032.182-.089.365-.22.089-.063.167-.118.175-.121l.056-.027a.517.517 0 0 1 .204-.067.609.609 0 0 0 .166-.053.856.856 0 0 1 .154-.058c.086-.02.272-.116.517-.269a.835.835 0 0 1 .146-.079c.02-.001.075-.04.25-.175a.474.474 0 0 1 .11-.06c.08-.029.218-.13.322-.238a2 2 0 0 1 .151-.13c.306-.24.378-.301.465-.395.095-.103.161-.163.252-.228.065-.046.215-.376.19-.417a.19.19 0 0 1-.019-.074c-.002-.037-.014-.055-.058-.086-.058-.042-.077-.044-.258-.035-.16.009-.209.05-.329.28-.077.147-.137.219-.348.417a.89.89 0 0 0-.15.165c-.015.073-.215.221-.42.311a2.09 2.09 0 0 0-.105.05 2.257 2.257 0 0 1-.107.057 3.877 3.877 0 0 0-.162.088.432.432 0 0 1-.103.047.81.81 0 0 0-.212.09.615.615 0 0 1-.09.054 5.58 5.58 0 0 0-.248.132l-.096.06a.511.511 0 0 1-.144.056.635.635 0 0 0-.18.077c-.311.187-.379.214-.396.164-.028-.081-.032-.146-.014-.19a.37.37 0 0 0 .015-.147.313.313 0 0 1 .007-.115.789.789 0 0 0 .013-.185c0-.094.008-.196.017-.226a.374.374 0 0 0 .013-.104.243.243 0 0 1 .023-.099.224.224 0 0 0 .024-.08c0-.014.004-.03.01-.034.007-.004.015-.03.018-.057a.368.368 0 0 1 .04-.112.478.478 0 0 0 .046-.16.34.34 0 0 1 .027-.115.078.078 0 0 0 .015-.049c-.001-.02.044-.077.134-.17a.892.892 0 0 0 .156-.195c.02-.053.232-.34.363-.493.07-.08.088-.12.085-.18-.002-.045.021-.099.1-.224a.746.746 0 0 0 .079-.179c.023-.094.023-.215 0-.227-.009-.005-.016-.02-.017-.036-.002-.045-.07-.165-.095-.172a.145.145 0 0 1-.051-.032c-.024-.024-.046-.026-.199-.017-.147.008-.179.014-.225.042-.112.068-.394.37-.405.432a.355.355 0 0 1-.07.157.277.277 0 0 0-.035.08.537.537 0 0 1-.093.15.538.538 0 0 0-.078.108c0 .008-.008.022-.02.033a.084.084 0 0 0-.018.055.483.483 0 0 1-.035.164.248.248 0 0 0-.008.084.476.476 0 0 1-.01.115c-.01.043-.01.06.004.072.01.008.019.046.02.083a.202.202 0 0 1-.035.132.33.33 0 0 0-.038.079c.002.028-.071.098-.22.21a3.41 3.41 0 0 0-.233.195 1.674 1.674 0 0 1-.163.137 1.552 1.552 0 0 0-.13.102 2.748 2.748 0 0 1-.316.25 1.39 1.39 0 0 0-.25.209c-.044.04-.106.09-.14.112a8.604 8.604 0 0 0-.137.09.925.925 0 0 1-.145.078c-.06.023-.16.073-.366.182a.692.692 0 0 0-.109.078c-.07.062-.143.08-.411.102a.976.976 0 0 0-.207.033c-.047.022-.265.027-.42.009-.087-.01-.108-.018-.136-.053-.029-.034-.034-.053-.03-.111a.422.422 0 0 1 .024-.116.208.208 0 0 0 .018-.064c0-.01.013-.044.03-.074a.337.337 0 0 0 .035-.105c.006-.064.045-.128.14-.236.082-.093.158-.208.157-.237 0-.01.036-.061.081-.113.082-.093.082-.095.075-.17a.45.45 0 0 0-.114-.242c-.04-.036-.089-.03-.204.02a.484.484 0 0 0-.192.15c-.052.058-.15.163-.218.234-.103.106-.123.135-.121.17a.268.268 0 0 1-.023.1.263.263 0 0 0-.023.095c0 .02-.007.045-.018.055a.123.123 0 0 0-.026.06c-.007.043-.115.162-.149.164a1.207 1.207 0 0 0-.252.155.729.729 0 0 1-.124.077 2.29 2.29 0 0 0-.102.053c-.02.011-.21.047-.292.055-.026.002-.106-.087-.12-.133-.05-.172-.008-.307.176-.56a.156.156 0 0 0 .032-.075c-.002-.032.161-.26.222-.31.037-.03.039-.036.03-.138-.008-.119-.047-.203-.096-.21a.771.771 0 0 0-.216-.001c-.05.013-.207.174-.23.236a.451.451 0 0 1-.14.186c-.07.051-.195.134-.248.164a1.676 1.676 0 0 0-.191.177c-.189.195-.238.24-.326.292a.481.481 0 0 0-.121.11c-.09.125-.183.214-.3.286a.542.542 0 0 0-.12.089.237.237 0 0 1-.063.06c-.03.024-.09.075-.13.114-.149.142-.446.296-.601.311a14.49 14.49 0 0 0-.318.038c-.228.029-.215.029-.578-.015a.362.362 0 0 1-.122-.03.082.082 0 0 0-.05-.014c-.018 0-.036-.004-.042-.012-.005-.007-.027-.013-.049-.012-.065.004-.161-.093-.201-.202a1.193 1.193 0 0 1-.06-.225c-.006-.03-.005-.055.004-.062.009-.005.014-.035.012-.065-.001-.03.003-.06.01-.064.008-.006.014-.028.012-.05 0-.023.005-.046.013-.052.008-.005.01-.027.004-.047-.01-.033.001-.048.092-.135a1.51 1.51 0 0 1 .13-.114.206.206 0 0 0 .052-.078.607.607 0 0 1 .197-.214c.018-.008.08-.027.14-.043a.447.447 0 0 0 .255-.147c.026-.036.032-.058.027-.106-.006-.05-.017-.068-.066-.107a.631.631 0 0 0-.312-.116.349.349 0 0 1-.115-.02.216.216 0 0 0-.076-.02.798.798 0 0 1-.109-.01c-.077-.011-.083-.01-.148.032a.736.736 0 0 0-.102.078.334.334 0 0 1-.117.06c-.132.038-.203.092-.292.225-.052.077-.261.22-.485.33a.772.772 0 0 0-.129.111c-.178.181-.23.212-.455.263-.122.028-.143.039-.402.193a.33.33 0 0 1-.157.057.88.88 0 0 0-.168.036c-.096.03-.299.089-.45.13a.481.481 0 0 0-.084.028.583.583 0 0 1-.252.068.52.52 0 0 0-.168.037.114.114 0 0 1-.051.022c-.014 0-.033.015-.043.031-.016.026-.028.03-.08.024a.245.245 0 0 1-.192-.166 1.685 1.685 0 0 0-.039-.111c-.038-.095-.028-.464.016-.558a.139.139 0 0 0 .01-.055c-.001-.018.033-.068.085-.125a.527.527 0 0 0 .086-.11c-.001-.033.074-.121.124-.145a.233.233 0 0 0 .078-.062c.031-.044.025-.07-.048-.21-.041-.079-.064-.105-.113-.133-.059-.032-.065-.033-.14-.013a2.236 2.236 0 0 1-.222.039c-.137.018-.145.02-.204.075-.034.031-.097.1-.139.154-.059.075-.077.11-.08.156-.005.053-.013.065-.088.12-.12.089-.229.197-.28.278a.752.752 0 0 1-.123.137 1.358 1.358 0 0 0-.113.106.434.434 0 0 1-.09.072.409.409 0 0 0-.089.072.462.462 0 0 1-.08.07.701.701 0 0 0-.089.073.212.212 0 0 1-.101.054.628.628 0 0 0-.248.127.364.364 0 0 1-.151.07.85.85 0 0 0-.25.103.298.298 0 0 1-.087.032c-.015.001-.03.008-.034.015-.009.016-.158.057-.358.1a6.047 6.047 0 0 0-.21.047c-.085.022-.483.034-.522.015-.024-.01-.033-.028-.035-.067a1.05 1.05 0 0 0-.03-.158.569.569 0 0 1-.023-.172c.007-.086-.03-.172-.118-.276-.084-.1-.112-.114-.24-.125l-.198-.018c-.084-.007-.095-.005-.115.021-.035.045-.097.06-.34.087-.235.024-.418.07-.537.133-.099.052-.141.012-.092-.088.036-.076.075-.132.174-.25a.44.44 0 0 0 .075-.11c0-.01.026-.058.059-.106.042-.063.07-.09.097-.094.068-.012.085-.112.05-.303-.012-.069-.022-.086-.06-.112a.277.277 0 0 0-.093-.038c-.025-.004-.05-.013-.055-.02-.017-.023-.085-.008-.168.038a.76.76 0 0 1-.117.056.448.448 0 0 0-.116.085c-.049.046-.094.077-.115.078-.068.004-.277.16-.274.207 0 .025-.21.258-.259.284-.108.06-.147.088-.16.116-.017.036-.062.057-.173.081a.661.661 0 0 0-.153.057.668.668 0 0 1-.23.09.152.152 0 0 0-.077.038.784.784 0 0 1-.254.116.2.2 0 0 0-.079.043.343.343 0 0 1-.138.056.67.67 0 0 0-.15.051c-.046.029-.195.04-.673.053l-.276.008-.13-.046c-.16-.055-.214-.098-.225-.18a.188.188 0 0 0-.046-.099c-.021-.022-.039-.052-.04-.066-.003-.061.077-.175.126-.178.01 0 .031-.02.047-.045.015-.024.039-.045.052-.046.014 0 .05-.025.08-.054.033-.031.07-.053.093-.055.025-.001.062-.025.108-.07a.346.346 0 0 1 .086-.068.243.243 0 0 0 .072-.06c.031-.034.068-.061.082-.062.015 0 .03-.013.033-.027a.458.458 0 0 1 .154-.14.849.849 0 0 0 .177-.183c0-.007.026-.05.059-.094a.437.437 0 0 0 .059-.096c0-.008.021-.045.048-.083.058-.08.082-.127.08-.154 0-.011.014-.05.033-.088a.37.37 0 0 0 .003-.317.406.406 0 0 0-.29-.214 2.8 2.8 0 0 0-.48-.021.302.302 0 0 0-.082.053.188.188 0 0 1-.077.045.067.067 0 0 0-.044.023c-.009.013-.024.023-.034.024-.01 0-.025.01-.034.022a.182.182 0 0 1-.065.04c-.062.025-.21.124-.21.14a.527.527 0 0 1-.17.122c-.01 0-.025.01-.03.022-.006.011-.053.07-.105.13a.722.722 0 0 0-.178.374.346.346 0 0 1-.032.098c-.006.004-.01.019-.01.032a.86.86 0 0 1-.067.205c-.04.07-.05.111-.057.266a3.72 3.72 0 0 0-.003.302l.007.13-.039.01a1.094 1.094 0 0 1-.323.081c-.071.004-.085-.015-.06-.084a.546.546 0 0 0 .05-.241c-.002-.105.018-.228.043-.262a.046.046 0 0 0 .007-.043c-.005-.012 0-.038.011-.058.015-.025.017-.045.007-.069a1.382 1.382 0 0 1-.062-.37c.004-.104-.014-.14-.126-.247a.902.902 0 0 1-.122-.147.696.696 0 0 0-.106-.129c-.055-.05-.072-.056-.166-.066a1.594 1.594 0 0 1-.185-.03.666.666 0 0 0-.44.065.258.258 0 0 1-.073.03c-.024.002-.22.147-.236.175a.943.943 0 0 1-.18.137.475.475 0 0 0-.076.058c-.015.016-.034.03-.043.03-.027.001-.19.18-.223.244-.036.07-.118.158-.148.16a.508.508 0 0 0-.117.146.286.286 0 0 1-.049.045c-.037.029-.066.037-.152.044-.082.007-.11.014-.122.034-.01.014-.024.026-.032.026-.009 0-.023.013-.033.027a.276.276 0 0 1-.165.104c-.036.007-.07.02-.074.027-.004.008-.018.014-.031.016-.013 0-.036.023-.05.049-.025.045-.03.047-.127.056-.067.007-.106.017-.117.032-.009.012-.025.022-.036.022-.01 0-.019.006-.019.012s-.02.036-.047.066c-.039.047-.057.057-.104.06a.158.158 0 0 0-.106.047.308.308 0 0 1-.092.057.262.262 0 0 0-.069.033.115.115 0 0 1-.054.022.091.091 0 0 0-.05.021.336.336 0 0 1-.095.043.653.653 0 0 0-.133.06.7.7 0 0 1-.173.064.784.784 0 0 0-.141.043.284.284 0 0 1-.106.019c-.056 0-.084.008-.102.026-.017.016-.06.029-.13.037-.144.018-.281.05-.316.076a.12.12 0 0 1-.08.015.108.108 0 0 0-.09.027.183.183 0 0 1-.11.037 1.104 1.104 0 0 0-.153.023 3.72 3.72 0 0 1-.196.038 1.68 1.68 0 0 0-.152.03.257.257 0 0 1-.117-.007.25.25 0 0 0-.09-.012c-.016.011-.09-.044-.092-.067a.607.607 0 0 1 .092-.182c.02-.03.037-.06.037-.067 0-.008.008-.023.02-.034.011-.01.03-.04.04-.064.01-.025.034-.08.055-.125a.428.428 0 0 0 .036-.103c0-.013.009-.031.02-.042.02-.018.01-.094-.016-.12-.007-.006-.014-.028-.015-.048a.644.644 0 0 0-.034-.125.378.378 0 0 1-.027-.126c.012-.087-.067-.175-.248-.276-.094-.053-.137-.056-.225-.02-.072.031-.138.035-.192.01-.036-.016-.053-.016-.095 0-.053.02-.146.067-.183.093a1.13 1.13 0 0 1-.09.05.484.484 0 0 0-.104.072c-.02.02-.045.035-.055.031-.01-.003-.033.008-.049.025-.016.016-.04.026-.052.023-.04-.013-.028-.073.027-.143.055-.07.092-.15.172-.368a.474.474 0 0 1 .052-.1.55.55 0 0 0 .057-.108.47.47 0 0 1 .05-.098.74.74 0 0 0 .057-.1c.045-.089.143-.213.228-.289a.62.62 0 0 0 .105-.124l.062-.105a.727.727 0 0 0 .049-.116c.025-.077.107-.188.14-.19.009 0 .06-.043.112-.094l.15-.145a.197.197 0 0 0 .067-.116c.009-.049.043-.105.136-.227.068-.089.146-.194.173-.234a.298.298 0 0 1 .085-.087c.034-.015.225-.22.435-.47a.748.748 0 0 1 .16-.153.601.601 0 0 0 .244-.282.53.53 0 0 1 .098-.12c.04-.038.093-.09.117-.115.024-.024.054-.045.066-.046a.13.13 0 0 0 .058-.031.13.13 0 0 1 .055-.032c.026-.001.069-.039.122-.107.039-.05.04-.056.024-.113-.02-.073-.068-.137-.113-.15a.277.277 0 0 0-.067-.003zm26.958 1.854c.024.022-.006.104-.068.19-.041.055-.06.094-.058.122a.204.204 0 0 1-.016.081c-.028.062-.148.187-.162.168-.006-.008-.005-.023.003-.032.008-.008.01-.032.004-.053-.006-.025.002-.066.023-.118a.628.628 0 0 0 .032-.09c-.002-.046.217-.29.242-.268zm-12.487.41a.833.833 0 0 0-.11 0c-.114.008-.136.014-.185.049a.27.27 0 0 1-.072.04.469.469 0 0 0-.096.093c-.08.09-.08.092-.08.181 0 .063.005.093.018.1a.274.274 0 0 1 .073.12c0 .01.02.034.045.055a.172.172 0 0 1 .046.052c.001.026.081.098.118.106.067.014.343-.02.421-.053.078-.032.14-.087.139-.12 0-.012.012-.045.027-.074a.47.47 0 0 0 .037-.193l.007-.141-.062-.052c-.088-.074-.173-.13-.198-.129a.197.197 0 0 1-.065-.02.175.175 0 0 0-.063-.015zm-8.56.827a.35.35 0 0 1 .134.018c.032.024.033.094.001.138a.156.156 0 0 0-.024.085.148.148 0 0 1-.028.088.303.303 0 0 0-.038.067c-.005.014-.025.033-.047.043a.528.528 0 0 0-.249.185.58.58 0 0 1-.127.124.667.667 0 0 0-.11.077.255.255 0 0 1-.091.056c-.016.001-.059.035-.096.077-.074.08-.07.079-.119.062-.024-.008-.032-.02-.028-.043.003-.018.007-.067.01-.11a.472.472 0 0 1 .026-.129.83.83 0 0 0 .037-.117c.024-.107.046-.156.083-.183.019-.014.034-.037.033-.05-.002-.04.188-.22.265-.25a.472.472 0 0 0 .164-.087c.004-.008.023-.015.041-.016.019 0 .038-.01.043-.018.006-.012.062-.017.12-.017zm-2.566.28a.303.303 0 0 1 .17.068c.01.012.027.021.037.02.01 0 .052.023.094.053.072.05.075.055.079.122.004.074.013.098.073.192.033.05.036.064.024.11a.383.383 0 0 0 .01.167c.034.163.033.175-.015.347-.048.173-.073.237-.098.253a.444.444 0 0 0-.058.107.614.614 0 0 1-.102.159l-.147.156a.478.478 0 0 1-.116.101 4.646 4.646 0 0 1-.382.067.65.65 0 0 0-.164.037c-.041.024-.105.03-.138.014a.572.572 0 0 0-.11-.02.473.473 0 0 1-.297-.126c-.075-.076-.084-.107-.07-.225.007-.052.014-.133.015-.18.004-.144.12-.375.287-.57.092-.107.113-.12.279-.191.167-.071.206-.133.177-.28-.02-.104-.017-.12.046-.19.06-.068.08-.079.206-.114a.561.561 0 0 0 .131-.052.141.141 0 0 1 .069-.024zm22.163 2.42c.012.001.019.005.02.015.001.03-.02.071-.08.16-.035.05-.05.086-.047.12.003.05-.011.08-.092.203a.313.313 0 0 0-.048.096c.001.022-.199.255-.29.337a.489.489 0 0 1-.269.14.275.275 0 0 0-.138.05.195.195 0 0 1-.058.038.275.275 0 0 0-.069.05.826.826 0 0 1-.131.091c-.203.11-.295.156-.317.157a.4.4 0 0 0-.1.043.532.532 0 0 1-.13.051.997.997 0 0 0-.139.041c-.158.06-.359.038-.389-.044a.235.235 0 0 0-.06-.069.205.205 0 0 1-.06-.082.445.445 0 0 0-.036-.085c-.034-.06-.014-.11.072-.176a.248.248 0 0 0 .067-.064.576.576 0 0 1 .105-.16c.006 0 .014-.017.018-.037.013-.068.203-.2.384-.265a.397.397 0 0 0 .086-.04.33.33 0 0 1 .097-.03.96.96 0 0 0 .217-.09c.127-.069.14-.073.258-.08a.889.889 0 0 0 .381-.106c.195-.094.247-.112.32-.107.061.003.083-.004.198-.067.11-.061.194-.094.23-.09z"/>
</svg>
