<svg xmlns="http://www.w3.org/2000/svg" viewBox="0 0 13.229 10.583">
  <path fill="#fff" d="M3.476 10.357c-.008-.013.004-.044.024-.06.038-.03.048.01.011.045-.024.023-.028.025-.035.015zm-1.66-.167c-.018-.013-.019-.023-.001-.023.028 0 .034-.007.034-.043a.11.11 0 0 0-.014-.057.11.11 0 0 1 .001-.104.183.183 0 0 0 .016-.075c.002-.029.006-.05.013-.058a.55.55 0 0 0 .027-.175c.001-.042.004-.052.022-.074a.234.234 0 0 0 .03-.05.171.171 0 0 1 .027-.044.15.15 0 0 0 .04-.083c0-.012.01-.027.034-.05a.154.154 0 0 0 .034-.038c0-.004.006-.013.012-.02a.181.181 0 0 0 .026-.035.303.303 0 0 1 .021-.035.12.12 0 0 0 .013-.044c.005-.034.022-.065.075-.13.02-.024.029-.042.029-.056a.1.1 0 0 1 .014-.044c.012-.02.012-.023.003-.023-.005 0-.01.003-.01.007s-.008.009-.018.011a.21.21 0 0 0-.036.014.08.08 0 0 1-.025.009.092.092 0 0 0-.027.01c-.083.042-.116.054-.148.053-.023-.001-.037.002-.046.01a.121.121 0 0 1-.05.015.12.12 0 0 0-.05.018.17.17 0 0 1-.066.02.424.424 0 0 0-.16.045.236.236 0 0 1-.063.025.151.151 0 0 0-.07.032.235.235 0 0 1-.066.015.225.225 0 0 0-.064.014.092.092 0 0 1-.039.007c-.05 0-.15.046-.199.09a.064.064 0 0 1-.037.018c-.014 0-.024.006-.036.021-.015.02-.02.021-.061.023-.036.001-.045 0-.045-.009 0-.007-.005-.008-.015-.006a.122.122 0 0 1-.02.005c-.003 0-.006.004-.006.008 0 .008-.023.032-.03.032-.002 0-.003-.007-.003-.016 0-.01-.004-.019-.008-.021-.004-.003.004-.01.019-.016.048-.022.089-.098.057-.107C.939 9.253.937 9.25.943 9.24c.005-.01.004-.019-.004-.033a.093.093 0 0 1-.01-.033.018.018 0 0 0-.014-.017.018.018 0 0 1-.013-.016.06.06 0 0 1 .013-.03.064.064 0 0 0 .014-.026c0-.014.027-.061.036-.061.004 0 .013-.006.02-.014a.048.048 0 0 1 .03-.014.347.347 0 0 0 .083-.01.26.26 0 0 0 .082-.045.131.131 0 0 1 .039-.015.285.285 0 0 0 .068-.03.16.16 0 0 1 .04-.02c.004 0 .013-.009.019-.018.01-.015.016-.017.037-.016a.145.145 0 0 0 .065-.016c.056-.025.061-.027.11-.028a.154.154 0 0 0 .117-.058.043.043 0 0 1 .028-.014c.01 0 .027-.008.04-.019a.272.272 0 0 1 .059-.034.315.315 0 0 0 .045-.022c.005-.005.012-.005.02 0 .023.011.075.016.092.007a.076.076 0 0 1 .036-.007.086.086 0 0 0 .04-.009.275.275 0 0 1 .056-.018.236.236 0 0 0 .06-.02c.018-.012.027-.013.042-.008.016.006.026.004.053-.008a.414.414 0 0 1 .083-.024c.07-.012.099-.029.12-.072a.172.172 0 0 0 .016-.048c0-.009.009-.02.023-.029.03-.018.065-.074.065-.105 0-.012.002-.024.006-.026.003-.002.007-.013.01-.024a.23.23 0 0 1 .03-.06.251.251 0 0 0 .028-.044c0-.004.008-.012.017-.02.01-.007.017-.017.017-.022 0-.006.012-.023.028-.039.03-.03.046-.062.046-.087a.07.07 0 0 1 .013-.032.243.243 0 0 0 .02-.04.105.105 0 0 1 .022-.032.075.075 0 0 0 .017-.036.201.201 0 0 1 .04-.086.078.078 0 0 0 .017-.046c0-.013.005-.037.01-.052.007-.015.01-.031.008-.036-.002-.005-.001-.012.002-.015.007-.008.057-.12.079-.178.017-.046.032-.069.047-.069.017 0 .024-.018.014-.038-.01-.017-.009-.02.003-.035a.06.06 0 0 0 .013-.032c0-.014.003-.02.03-.043.01-.008.011-.018.007-.072-.005-.07.009-.119.036-.128.008-.002.016-.012.018-.026a.214.214 0 0 1 .018-.045.112.112 0 0 0 .013-.032c0-.004.01-.018.023-.03a.322.322 0 0 0 .065-.144.174.174 0 0 1 .023-.058.095.095 0 0 0 .017-.038c0-.008.005-.018.01-.023.007-.006.01-.019.01-.036-.001-.02.006-.043.026-.082a.541.541 0 0 0 .031-.075.109.109 0 0 1 .025-.04.334.334 0 0 0 .04-.061.358.358 0 0 1 .034-.054.153.153 0 0 0 .034-.088c0-.017.006-.03.021-.048a.926.926 0 0 0 .1-.208.1.1 0 0 1 .018-.04.175.175 0 0 0 .023-.06.426.426 0 0 1 .057-.164.308.308 0 0 0 .034-.073c.002-.014.008-.028.014-.033a.358.358 0 0 0 .036-.053.214.214 0 0 0 .023-.185c-.018-.04-.017-.124.001-.151.014-.021.016-.044.006-.081a.15.15 0 0 1-.003-.054.358.358 0 0 0 .003-.063 2.387 2.387 0 0 1-.002-.127c0-.01.004-.036.008-.056a.18.18 0 0 0 0-.083c-.009-.042-.009-.05.001-.07a.269.269 0 0 0 .002-.15.558.558 0 0 1-.01-.134v-.13a.5.5 0 0 1 .006-.07.904.904 0 0 0 .012-.183.484.484 0 0 1 .007-.125.48.48 0 0 0 .016-.178c-.016-.071-.017-.092-.002-.117a.102.102 0 0 0 .015-.04c0-.01.006-.038.012-.064.012-.047.012-.048 0-.063-.013-.013-.013-.017-.006-.035a.092.092 0 0 0 .003-.049c-.006-.038-.005-.07.004-.086a1.32 1.32 0 0 0-.004-.315c-.01-.027-.01-.03.004-.068a.314.314 0 0 0 .016-.102c0-.043.004-.066.012-.078.015-.023.02-.054.023-.131a.842.842 0 0 1 .01-.108c.005-.023.009-.085.01-.139 0-.065.004-.106.01-.123a.067.067 0 0 0 0-.054c-.016-.054-.016-.098 0-.133a.166.166 0 0 0 .012-.06c0-.022.003-.033.015-.046.013-.014.017-.027.02-.063a.132.132 0 0 1 .015-.063.074.074 0 0 0 .013-.024c0-.006.015-.039.032-.07.018-.032.022-.043.022-.064a.11.11 0 0 1 .023-.06.137.137 0 0 0 .024-.053.06.06 0 0 1 .013-.033.803.803 0 0 0 .048-.101l.051-.115a.918.918 0 0 0 .03-.07.233.233 0 0 1 .04-.064.518.518 0 0 0 .037-.045.432.432 0 0 1 .038-.045l.059-.06c.042-.046.085-.082.098-.082A.728.728 0 0 0 4.64.83l.063-.016.021.022c.02.02.025.022.052.02.02-.003.033 0 .04.006a.132.132 0 0 0 .048.017.816.816 0 0 1 .07.017.22.22 0 0 0 .05.01c.02 0 .037.014.037.03 0 .005.003.012.006.014.005.003.013.028.018.054 0 .004.004.015.008.025.008.018-.006.093-.027.143a.298.298 0 0 0-.008.139c.004.035.003.044-.007.055-.029.032-.056.262-.034.295.005.009.01.023.01.03 0 .014.015.046.032.068.01.013.008.053-.003.072-.006.01-.007.034-.005.078.013.22.013.317-.002.357a.067.067 0 0 0-.002.033c.011.043-.008.15-.047.272a.228.228 0 0 0-.005.054.14.14 0 0 1-.01.06.375.375 0 0 0-.028.15.25.25 0 0 1-.018.098l-.019.059a.237.237 0 0 1-.015.062c-.01.014-.014.05-.007.073.005.02.003.03-.014.068a.659.659 0 0 0-.05.19.197.197 0 0 1-.02.072.171.171 0 0 0-.017.043.176.176 0 0 1-.014.043.509.509 0 0 0-.037.1.406.406 0 0 1-.02.06.241.241 0 0 0-.017.056.134.134 0 0 1-.015.049.098.098 0 0 0-.015.038.214.214 0 0 1-.041.105c-.01.009-.017.021-.017.028a1.019 1.019 0 0 0-.068.232.296.296 0 0 1-.015.059.268.268 0 0 0-.015.064.5.5 0 0 1-.01.066.211.211 0 0 0-.003.066c.004.036.003.042-.012.062a.464.464 0 0 0-.07.15.408.408 0 0 1-.017.06.183.183 0 0 0-.01.047.156.156 0 0 1-.013.049.32.32 0 0 0-.02.049.135.135 0 0 1-.017.039c-.003.002-.008.019-.01.038a.13.13 0 0 1-.028.066.131.131 0 0 0-.023.038c0 .004-.01.028-.02.053a.16.16 0 0 0-.018.05c.002.004-.004.02-.013.04a.164.164 0 0 0-.017.048.066.066 0 0 1-.013.033.213.213 0 0 0-.025.052.159.159 0 0 1-.02.044c-.005.005-.01.012-.01.016s-.005.013-.011.02c-.013.015-.013.027-.009.212a.725.725 0 0 0 .011.134.262.262 0 0 1 .005.091c-.003.054-.002.071.008.093a.19.19 0 0 1 .01.076c0 .03.005.067.014.1a.24.24 0 0 1 .01.097.174.174 0 0 0 .009.086c.016.049.024.13.021.213 0 .035.013.131.028.193a.51.51 0 0 1 .013.075c0 .011.007.038.016.06.022.056.027.092.017.13-.007.028-.006.038.007.079a.348.348 0 0 1 .014.09c0 .023.004.054.01.067a.24.24 0 0 1 .01.069c.002.03.007.058.018.084a.204.204 0 0 1 .016.087c0 .046.001.05.024.072.021.021.026.023.049.019a.115.115 0 0 0 .041-.018.063.063 0 0 1 .032-.013.437.437 0 0 0 .112-.045.094.094 0 0 1 .036-.009c.01 0 .034-.01.053-.024a.17.17 0 0 1 .044-.023c.004 0 .016-.01.026-.02.013-.015.024-.02.04-.02.03 0 .056-.011.078-.03a.332.332 0 0 1 .074-.038.333.333 0 0 0 .132-.082c.029-.028.055-.04.082-.04.009 0 .027-.01.042-.024.023-.02.031-.024.06-.024a.447.447 0 0 0 .202-.066l.064-.032a.886.886 0 0 0 .083-.049.837.837 0 0 1 .083-.046.16.16 0 0 0 .04-.023.089.089 0 0 1 .03-.018.167.167 0 0 0 .042-.027c.014-.013.03-.019.071-.024a.163.163 0 0 0 .08-.027c.026-.018.031-.019.068-.015.03.003.041.002.047-.005a.122.122 0 0 1 .041-.023.13.13 0 0 0 .045-.025c.01-.013.041-.023.095-.03.02-.003.029-.009.037-.023.011-.018.014-.02.047-.016.032.003.038.001.058-.016a.124.124 0 0 1 .05-.025.103.103 0 0 0 .053-.031.236.236 0 0 1 .107-.07.233.233 0 0 0 .047-.013.361.361 0 0 1 .04-.015.13.13 0 0 0 .04-.028.229.229 0 0 1 .044-.034.515.515 0 0 0 .054-.036.269.269 0 0 1 .06-.034.238.238 0 0 0 .054-.028.125.125 0 0 1 .036-.019c.013 0 .043-.02.067-.045.02-.022.025-.023.132-.033.05-.005.076-.018.097-.051a.116.116 0 0 1 .055-.044.152.152 0 0 0 .04-.023.114.114 0 0 1 .033-.02.14.14 0 0 0 .04-.026c.006-.008.023-.015.046-.018.041-.005.055-.012.092-.046a.095.095 0 0 1 .054-.03.355.355 0 0 0 .15-.067.198.198 0 0 1 .055-.034.201.201 0 0 0 .139-.155.328.328 0 0 1 .03-.074.22.22 0 0 0 .031-.092.191.191 0 0 1 .015-.059.066.066 0 0 0 .009-.028c0-.008.002-.014.006-.014.01 0 .022-.036.025-.071.005-.047.014-.066.042-.093a.28.28 0 0 0 .073-.121.26.26 0 0 1 .061-.116.106.106 0 0 0 .027-.04.055.055 0 0 1 .01-.023c.003-.002.006-.011.006-.02 0-.009.003-.018.006-.02.004-.002.009-.013.011-.025a.178.178 0 0 1 .018-.043.13.13 0 0 0 .015-.041.168.168 0 0 1 .02-.05.214.214 0 0 0 .022-.058.118.118 0 0 1 .03-.055c.015-.016.027-.034.027-.04 0-.005.005-.017.01-.026.018-.027.027-.326.011-.355-.01-.02-.01-.087 0-.1.005-.006.006-.028.002-.075a2.038 2.038 0 0 1-.006-.113.188.188 0 0 0-.01-.064.143.143 0 0 1-.007-.06c.003-.068.001-.082-.008-.102-.006-.013-.007-.033-.004-.072a.715.715 0 0 0 0-.105 1.54 1.54 0 0 1-.004-.085.116.116 0 0 0-.005-.04c-.003-.002.001-.023.008-.046a.286.286 0 0 0 .012-.069c0-.034.01-.102.02-.128a.06.06 0 0 0 .004-.033c-.004-.013.006-.039.022-.06.006-.007.007-.016.003-.03-.023-.073-.02-.153.01-.195a.066.066 0 0 0 .01-.03c0-.01.004-.025.009-.033.006-.01.007-.03.003-.064a.147.147 0 0 1 .002-.057c.004-.004.006-.016.005-.027a.17.17 0 0 1 .014-.052c.013-.027.016-.042.014-.088l-.003-.127a.386.386 0 0 0-.006-.079c-.003-.004-.002-.015.002-.022a.217.217 0 0 0 .012-.06.172.172 0 0 1 .016-.066c.007-.011.01-.023.008-.025-.002-.002 0-.01.006-.016.006-.008.009-.032.01-.09 0-.043.001-.081.004-.085.003-.005 0-.023-.005-.042-.01-.035-.007-.059.012-.082.005-.005.007-.026.006-.05a.143.143 0 0 1 .031-.102.709.709 0 0 0 .083-.18c0-.033.02-.052.073-.068.046-.014.073-.013.137.008.05.016.06.023.06.04 0 .007.012.018.029.028.02.011.03.022.035.04a.09.09 0 0 0 .026.04c.01.008.019.02.019.03 0 .008.005.037.012.065a.366.366 0 0 1 .011.087.826.826 0 0 1-.018.166.095.095 0 0 0 .007.094c.016.023.018.033.017.073 0 .026-.004.05-.008.055-.012.011-.01.014.027.06l.035.041-.004.057a.168.168 0 0 0 .003.06c.009.006.007.048-.003.059a.111.111 0 0 0-.01.046.469.469 0 0 1-.032.169l-.018.053a.13.13 0 0 0-.006.038.107.107 0 0 1-.01.042.082.082 0 0 0-.006.05.084.084 0 0 1-.006.05.165.165 0 0 0-.01.06.56.56 0 0 1-.01.08 1.089 1.089 0 0 0-.01.13 1.4 1.4 0 0 1-.027.299.396.396 0 0 0-.012.083.488.488 0 0 1-.011.088.222.222 0 0 0-.009.055c0 .02-.007.056-.013.078a.647.647 0 0 0-.036.163c-.003.047-.006.056-.024.074a.091.091 0 0 0-.023.048.192.192 0 0 1-.018.053.201.201 0 0 0-.017.074.183.183 0 0 1-.01.056.03.03 0 0 0-.001.023c.003.01-.002.02-.024.04a.117.117 0 0 0-.027.031.458.458 0 0 0-.057.143.332.332 0 0 1-.025.065c-.014.025-.016.04-.018.113a.946.946 0 0 1-.009.127.27.27 0 0 0 .005.117.14.14 0 0 1 .002.082.37.37 0 0 0-.01.087.375.375 0 0 1-.009.082.266.266 0 0 0-.008.064.26.26 0 0 1-.01.07.133.133 0 0 0-.01.04c0 .02.02.077.03.083.015.01.056-.009.133-.06a.156.156 0 0 1 .039-.022.88.88 0 0 0 .133-.065.137.137 0 0 1 .036-.016.326.326 0 0 0 .061-.033.348.348 0 0 1 .073-.038.16.16 0 0 0 .057-.041c.02-.02.04-.037.044-.037a.413.413 0 0 0 .105-.1.146.146 0 0 1 .049-.043.237.237 0 0 0 .055-.043c.032-.033.05-.044.074-.044.01 0 .026-.006.036-.013a.959.959 0 0 1 .064-.037c.036-.02.047-.03.053-.047a.142.142 0 0 1 .081-.076.19.19 0 0 0 .041-.021c.006-.005.014-.01.018-.01.004 0 .02-.01.037-.024a.64.64 0 0 1 .056-.042.912.912 0 0 0 .082-.066.267.267 0 0 1 .082-.056.142.142 0 0 0 .059-.041c.018-.019.037-.034.044-.034a.446.446 0 0 0 .124-.049c.03-.02.073-.053.093-.07a.204.204 0 0 1 .05-.027.23.23 0 0 0 .058-.032c.081-.067.14-.106.162-.106.008 0 .014-.003.014-.006 0-.004.007-.008.016-.01a.084.084 0 0 0 .032-.021c.01-.01.02-.017.025-.017.004 0 .016-.011.026-.024a.084.084 0 0 1 .043-.03c.02-.006.037-.02.069-.056.053-.06.057-.064.087-.07.017-.002.037-.016.075-.053.042-.04.057-.051.08-.055.03-.005.052-.028.07-.073.006-.014.015-.025.02-.025.005 0 .015-.008.022-.018a.229.229 0 0 1 .047-.04.295.295 0 0 0 .048-.037.33.33 0 0 1 .049-.038c.042-.028.074-.065.08-.092a.044.044 0 0 1 .017-.026c.007-.004.013-.01.013-.016 0-.011.028-.074.04-.088a.03.03 0 0 1 .02-.01c.015 0 .075-.047.075-.058 0-.004.007-.021.016-.038a.273.273 0 0 0 .02-.047.11.11 0 0 1 .025-.038.542.542 0 0 0 .075-.16c.018-.068.027-.112.034-.153.01-.061.019-.088.037-.11a.063.063 0 0 0 .016-.032c0-.007.008-.022.017-.033.01-.011.017-.025.017-.031 0-.006.007-.017.014-.025a.079.079 0 0 0 .018-.037c.002-.014.009-.024.016-.027.018-.005.024-.02.03-.067a.174.174 0 0 1 .016-.058.155.155 0 0 0 .015-.05l.013-.076a.134.134 0 0 0-.003-.085.57.57 0 0 1-.015-.112c-.001-.048-.005-.074-.012-.085a.107.107 0 0 1-.01-.053.143.143 0 0 0-.02-.077c-.024-.044-.025-.049-.01-.064.01-.011.009-.015-.004-.04a.128.128 0 0 1-.014-.04.39.39 0 0 0-.05-.103.089.089 0 0 1-.015-.03.118.118 0 0 0-.013-.032.664.664 0 0 0-.095-.078c-.005-.003-.01-.014-.012-.025a.1.1 0 0 0-.024-.04.135.135 0 0 1-.027-.05c-.007-.024-.014-.033-.048-.056a.292.292 0 0 1-.061-.055.261.261 0 0 0-.047-.048c-.015-.01-.027-.022-.027-.026a.156.156 0 0 0-.04-.033.178.178 0 0 1-.044-.037c-.005-.015-.033-.03-.07-.04-.03-.009-.083-.04-.089-.053a.407.407 0 0 0-.097-.066.379.379 0 0 1-.067-.027 14.64 14.64 0 0 0-.08-.037.357.357 0 0 1-.135-.1c-.008-.015-.034-.034-.07-.05a.272.272 0 0 1-.042-.027.28.28 0 0 0-.058-.03.89.89 0 0 1-.103-.055.32.32 0 0 0-.182-.063.428.428 0 0 1-.124-.024 3.187 3.187 0 0 0-.301-.025c-.15 0-.25-.004-.277-.01a.115.115 0 0 0-.063.002.18.18 0 0 1-.036.007C9.468.49 9.31.495 9.255.53a.136.136 0 0 1-.071.022.227.227 0 0 0-.078.02c-.03.015-.037.016-.092.012a.245.245 0 0 0-.14.023.477.477 0 0 1-.133.049.228.228 0 0 0-.078.03.268.268 0 0 1-.058.027.617.617 0 0 0-.132.058.22.22 0 0 1-.068.022 2.047 2.047 0 0 0-.081.016 1.813 1.813 0 0 1-.089.017.452.452 0 0 0-.143.049.098.098 0 0 1-.025.01.213.213 0 0 0-.041.034c-.028.027-.041.035-.065.038-.017.003-.034.01-.038.016a.095.095 0 0 1-.035.023.287.287 0 0 0-.08.056.184.184 0 0 1-.04.024.21.21 0 0 0-.05.032c-.03.028-.132.103-.16.117a.246.246 0 0 0-.047.035l-.062.054a.211.211 0 0 0-.047.053.768.768 0 0 1-.186.178c-.052.028-.103.069-.103.08 0 .005-.012.017-.027.027a.301.301 0 0 0-.052.048.202.202 0 0 1-.06.048.173.173 0 0 0-.044.026c-.004.006-.01.01-.014.01a.08.08 0 0 0-.024.018.786.786 0 0 1-.057.046.192.192 0 0 0-.052.059.93.93 0 0 1-.149.176.246.246 0 0 0-.042.046c0 .003-.004.008-.009.01a.13.13 0 0 0-.027.04.196.196 0 0 1-.025.042c-.004.002-.007.013-.007.023s-.004.023-.01.028a.03.03 0 0 0-.01.019c0 .015-.028.055-.042.059-.021.007-.047.037-.064.076a2.66 2.66 0 0 1-.03.065c-.01.021-.011.032-.006.063.006.036.005.039-.01.054-.01.008-.017.021-.017.029a.026.026 0 0 1-.013.02c-.017.01-.08.01-.085 0-.003-.003-.01-.006-.016-.006s-.017-.009-.023-.019a1.057 1.057 0 0 0-.036-.05c-.027-.037-.033-.072-.023-.131a.438.438 0 0 1 .073-.16.13.13 0 0 0 .018-.04.17.17 0 0 1 .045-.065.238.238 0 0 0 .04-.049c0-.016.089-.145.117-.17.021-.02.031-.033.031-.045 0-.02.01-.04.03-.063a.168.168 0 0 0 .027-.054c.008-.028.015-.04.031-.049a.195.195 0 0 0 .047-.052.403.403 0 0 1 .08-.084 1.021 1.021 0 0 0 .097-.089.15.15 0 0 0 .027-.041c.01-.024.019-.031.05-.046a.84.84 0 0 0 .198-.189c.01-.023.054-.052.087-.057a.214.214 0 0 0 .052-.016.143.143 0 0 1 .034-.013.144.144 0 0 0 .039-.037c.03-.036.07-.064.09-.064a.618.618 0 0 0 .09-.04c.072-.036.081-.043.09-.065a.081.081 0 0 1 .025-.035c.009-.006.016-.014.016-.019 0-.013.033-.034.086-.054.05-.019.058-.026.128-.11.026-.031.033-.035.078-.046a.148.148 0 0 0 .077-.037.106.106 0 0 1 .057-.03.102.102 0 0 0 .044-.017c.01-.01.029-.013.081-.016.082-.005.109-.013.122-.04.011-.02.02-.022.086-.02a.236.236 0 0 0 .114-.03.32.32 0 0 1 .145-.06.448.448 0 0 0 .157-.032.127.127 0 0 1 .042-.015.073.073 0 0 0 .035-.015c.009-.008.03-.014.057-.017a.15.15 0 0 0 .08-.029c.034-.023.04-.024.09-.024a.426.426 0 0 0 .165-.034.232.232 0 0 1 .068-.015.17.17 0 0 0 .062-.015.09.09 0 0 1 .05-.01.917.917 0 0 0 .112-.01.328.328 0 0 1 .165.005c.063.013.09.015.106.01a.144.144 0 0 1 .051-.002c.022.004.032.002.042-.006.008-.008.027-.013.055-.014a1.073 1.073 0 0 1 .161-.001c.073.004.095.008.11.018.01.007.031.014.048.015.017.002.053.01.08.019.038.012.05.014.06.007.029-.02.04-.022.075-.004.032.016.036.016.078.009l.044-.008.022.02a.097.097 0 0 0 .05.026c.015.003.032.009.036.014.01.011.058.013.064.003.007-.012.033-.007.068.011a.496.496 0 0 1 .09.062c.011.008.033.02.048.025a.241.241 0 0 1 .06.037.22.22 0 0 0 .06.034.291.291 0 0 1 .104.056.078.078 0 0 0 .044.019c.014 0 .032.008.05.023a.172.172 0 0 0 .046.027.182.182 0 0 1 .044.024.09.09 0 0 0 .053.02c.02 0 .03.006.055.03a.174.174 0 0 0 .057.036c.026.008.084.055.084.068 0 .004.018.02.04.035.036.025.08.072.082.086 0 .003.01.02.022.036.02.027.026.03.052.033a.097.097 0 0 1 .037.008c.01.01.024.008.024-.003 0-.023.028-.016.058.013a.54.54 0 0 0 .06.05c.034.024.037.03.037.079 0 .047.016.084.054.133.057.074.068.09.068.109 0 .013.01.029.036.055.043.044.07.089.07.113 0 .01.007.026.015.037.01.012.014.027.014.049 0 .02.01.054.025.094.024.061.025.065.018.105a.54.54 0 0 0 .005.226c.01.021.013.032.007.038a.346.346 0 0 0-.005.161c.008.02.008.03.003.052-.007.023-.006.034.004.06a.193.193 0 0 1 .011.046c0 .024-.024.078-.04.089a.036.036 0 0 0-.014.03c0 .01-.004.022-.01.025-.016.01-.04.068-.035.09.003.016.001.022-.012.03a.167.167 0 0 0-.045.093.678.678 0 0 1-.095.207c-.01.012-.02.028-.02.035a.23.23 0 0 1-.02.057.278.278 0 0 0-.02.053c0 .004-.014.03-.03.055a.302.302 0 0 0-.031.055.13.13 0 0 1-.014.033c-.008.014-.012.031-.01.038.003.008-.003.02-.015.035a.405.405 0 0 0-.042.07.45.45 0 0 1-.031.057.194.194 0 0 0-.02.049c-.009.031-.016.043-.038.058a.67.67 0 0 0-.075.075.296.296 0 0 1-.056.055c-.01 0-.037.028-.037.038a.367.367 0 0 1-.056.08.269.269 0 0 0-.03.043c-.02.036-.04.055-.058.055-.02 0-.058.04-.072.078a.352.352 0 0 1-.03.061.112.112 0 0 0-.018.033c0 .011-.04.059-.05.059-.015 0-.05.034-.055.053-.003.014-.015.028-.038.045a.152.152 0 0 0-.033.029c0 .017-.129.096-.157.096a.072.072 0 0 0-.022.017c-.01.009-.022.017-.029.017-.011 0-.035.013-.08.043a.467.467 0 0 0-.05.042.645.645 0 0 1-.083.063.35.35 0 0 0-.057.043.202.202 0 0 1-.046.032c-.044.024-.057.037-.058.055 0 .041-.069.096-.13.104a.315.315 0 0 0-.073.022 2.26 2.26 0 0 0-.152.076.139.139 0 0 1-.03.013.25.25 0 0 0-.061.038.373.373 0 0 1-.137.077.086.086 0 0 0-.04.017.093.093 0 0 1-.03.017.337.337 0 0 0-.058.026c-.055.028-.148.07-.157.07a.191.191 0 0 0-.04.026.431.431 0 0 1-.072.045.346.346 0 0 0-.111.064.08.08 0 0 1-.025.02.132.132 0 0 0-.031.027.12.12 0 0 1-.056.035.117.117 0 0 0-.057.036.128.128 0 0 1-.048.034.113.113 0 0 0-.044.03.187.187 0 0 1-.12.047.245.245 0 0 0-.097.037.056.056 0 0 1-.025.014.132.132 0 0 0-.039.02.134.134 0 0 1-.041.021.137.137 0 0 0-.041.02.24.24 0 0 1-.054.026.163.163 0 0 0-.049.026.275.275 0 0 1-.05.032l-.036.018.002.064c.003.112.007.185.01.203.004.014.006.23.004.264-.002.028.01.1.02.114.013.02.017.213.005.266-.005.025-.005.038.002.055.012.031.013.04.006.058a.491.491 0 0 0-.009.095.464.464 0 0 1-.01.098.076.076 0 0 0-.003.037.5.5 0 0 1-.003.088.268.268 0 0 0 0 .082c.003.006.003.02 0 .031a.062.062 0 0 0 .001.036.25.25 0 0 1 .008.068.198.198 0 0 0 .01.065c.01.018.01.04.003.104a1.58 1.58 0 0 0-.002.169.55.55 0 0 1-.003.134c-.005.011-.005.02 0 .027a.601.601 0 0 1 .004.134 3.653 3.653 0 0 0-.002.172c.002.051.003.13.001.268 0 .04.003.084.006.096.005.017.003.025-.008.04-.012.015-.013.02-.006.039.01.027.01.06 0 .105a.126.126 0 0 0 0 .067c.005.017.01.054.012.081 0 .028.004.072.006.098.005.05.009.115.01.15 0 .011.003.03.007.041.005.016.004.029-.003.05s-.008.033-.003.049a.069.069 0 0 1 0 .046.293.293 0 0 0-.002.099c.004.04.006.078.006.084a.368.368 0 0 0 .017.098.15.15 0 0 1 .01.037c0 .01.003.032.007.051.005.029.004.038-.006.058a.115.115 0 0 0-.013.03.287.287 0 0 1-.065.07c-.015.013-.03.018-.07.021-.032.003-.052.008-.057.015-.007.009-.01.008-.031-.006a.097.097 0 0 0-.045-.016c-.02 0-.023-.003-.03-.025a.157.157 0 0 0-.037-.054c-.017-.015-.03-.034-.03-.041 0-.008-.007-.019-.015-.025-.013-.009-.014-.014-.01-.056a.362.362 0 0 0-.004-.082c-.007-.035-.006-.037.01-.05.015-.013.018-.023.022-.07a.308.308 0 0 1 .01-.064c.004-.006.004-.022 0-.036-.021-.08-.022-.072.005-.083.02-.008.023-.012.019-.025a.522.522 0 0 1-.01-.072 1.763 1.763 0 0 0-.013-.107c-.007-.042-.007-.052.003-.072a.086.086 0 0 0 .008-.05.577.577 0 0 0-.029-.128c-.012-.03-.01-.09.003-.106.011-.014.015-.067.009-.12a.224.224 0 0 1 0-.078.612.612 0 0 0 .011-.063.227.227 0 0 1 .025-.072c.018-.032.02-.037.012-.057a.052.052 0 0 1-.001-.038.283.283 0 0 0 .007-.069c0-.033.003-.056.01-.065.006-.009.01-.031.01-.065a.57.57 0 0 1 .006-.088c.006-.03.006-.042-.002-.06a.065.065 0 0 1-.002-.051c.012-.041.012-.119 0-.138-.01-.014-.01-.021-.003-.052a.121.121 0 0 0 .004-.047c-.002-.006 0-.016.004-.023.006-.01.006-.015 0-.022a.144.144 0 0 1-.011-.05.21.21 0 0 0-.014-.061c-.012-.023-.013-.046-.003-.065a.72.72 0 0 0 .002-.217c-.015-.011-.01-.029.011-.044.024-.018.025-.026.01-.044-.011-.011-.011-.014-.001-.031.012-.02.014-.05.007-.108-.002-.02 0-.039.004-.044a.18.18 0 0 0 .013-.095.02.02 0 0 1-.002-.018c.002-.003-.004-.023-.013-.043-.02-.042-.02-.047-.014-.2a3.42 3.42 0 0 0 .003-.186c.003-.083 0-.142-.01-.153a.032.032 0 0 1-.006-.027.68.68 0 0 0 .003-.084c0-.076-.013-.119-.035-.119a.325.325 0 0 0-.122.057.175.175 0 0 1-.051.03.135.135 0 0 0-.089.071.217.217 0 0 0-.021.046.223.223 0 0 1-.024.046.263.263 0 0 0-.03.072.75.75 0 0 1-.047.137.254.254 0 0 0-.014.045.291.291 0 0 1-.031.071c-.02.032-.041.095-.033.095a1.15 1.15 0 0 1-.132.234c-.02.04-.061.13-.061.137a.118.118 0 0 1-.017.03.463.463 0 0 0-.051.12.174.174 0 0 1-.029.047.76.76 0 0 0-.106.242c0 .01-.01.034-.021.055-.012.02-.02.043-.018.05.002.007-.007.028-.023.05a.201.201 0 0 0-.026.048c0 .005-.01.018-.02.03a.148.148 0 0 0-.027.05c-.004.015-.013.03-.02.034-.018.012-.057.094-.053.113a.273.273 0 0 1-.02.083 2.812 2.812 0 0 0-.034.104.229.229 0 0 1-.02.05.053.053 0 0 0-.01.025.1.1 0 0 1-.016.035.098.098 0 0 0-.017.048c0 .017-.005.026-.02.038-.02.015-.048.06-.048.078 0 .006-.007.016-.015.024-.011.01-.015.022-.015.05a.13.13 0 0 1-.008.048.166.166 0 0 0-.012.04.119.119 0 0 1-.023.047.156.156 0 0 0-.023.033.09.09 0 0 1-.03.028.434.434 0 0 0-.062.054c-.029.031-.035.042-.035.062 0 .022-.003.026-.023.034-.026.011-.032.018-.055.062a.28.28 0 0 1-.034.05c-.011.012-.015.022-.012.032.003.012 0 .015-.01.015s-.02.008-.027.02c-.006.011-.016.022-.022.024A.398.398 0 0 0 6.721 9l-.051.055a.406.406 0 0 0-.078.1c0 .012-.047.055-.07.066a.07.07 0 0 0-.027.023c-.01.018-.019.023-.036.024-.01 0-.022.01-.036.03-.032.047-.07.071-.109.071a.12.12 0 0 0-.095.037c-.026.024-.036.027-.115.038-.16.023-.336.018-.386-.01-.033-.02-.082-.023-.104-.008-.019.013-.114.022-.12.012-.003-.005-.014-.008-.025-.008a.07.07 0 0 1-.036-.014c-.019-.015-.039-.017-.05-.005-.012.011-.037.002-.065-.025-.016-.016-.032-.024-.044-.024a.048.048 0 0 1-.032-.014c-.01-.01-.018-.013-.031-.01-.013.002-.028-.002-.048-.013-.023-.013-.038-.017-.078-.017-.05 0-.065-.005-.096-.033a.233.233 0 0 0-.038-.027.296.296 0 0 1-.087-.068c-.002-.006-.012-.014-.023-.02-.017-.007-.055-.054-.055-.068 0-.004-.013-.015-.028-.024a.095.095 0 0 1-.033-.034.09.09 0 0 0-.033-.03c-.028-.014-.055-.05-.055-.072 0-.01-.01-.015-.048-.025-.056-.013-.06-.015-.049-.031.008-.013.003-.049-.01-.072a.03.03 0 0 1 .017-.044l.016-.007-.024-.029a.201.201 0 0 1-.044-.1c0-.008-.016-.03-.035-.049-.029-.028-.036-.04-.038-.063-.003-.023-.008-.032-.029-.049-.03-.024-.06-.074-.06-.098a.076.076 0 0 0-.015-.037c-.013-.018-.013-.02-.003-.036.012-.019.007-.027-.02-.035-.011-.003-.016-.012-.02-.032a.195.195 0 0 0-.02-.056c-.014-.023-.017-.038-.017-.072a.152.152 0 0 0-.01-.066l-.012-.021-.066.033a.535.535 0 0 1-.075.034.292.292 0 0 0-.056.03.511.511 0 0 1-.086.04.256.256 0 0 0-.05.022.066.066 0 0 1-.032.01.18.18 0 0 0-.084.04.188.188 0 0 1-.08.027.12.12 0 0 0-.041.02.211.211 0 0 1-.034.02.394.394 0 0 0-.045.028.23.23 0 0 1-.05.027c-.004 0-.013.006-.02.013-.007.008-.018.014-.024.014a.284.284 0 0 0-.062.023.348.348 0 0 1-.057.024c-.004 0-.013.008-.019.017-.006.01-.016.017-.023.017a.124.124 0 0 0-.038.014.122.122 0 0 1-.041.013.18.18 0 0 0-.05.018.41.41 0 0 1-.08.026.206.206 0 0 0-.06.022.322.322 0 0 1-.07.03.145.145 0 0 0-.053.024.016.016 0 0 1-.014.009.054.054 0 0 0-.025.009.13.13 0 0 1-.03.014 1.562 1.562 0 0 1-.24.125c-.015 0-.03.023-.034.054a.542.542 0 0 1-.042.106.634.634 0 0 0-.036.083.07.07 0 0 1-.013.027.127.127 0 0 0-.017.042.21.21 0 0 1-.048.094.256.256 0 0 0-.044.106.071.071 0 0 1-.01.029.41.41 0 0 0-.02.068.52.52 0 0 1-.086.191.215.215 0 0 0-.026.046c0 .004-.009.016-.02.026a.387.387 0 0 0-.058.136.39.39 0 0 0-.007.164c.007.015.008.028.003.061-.008.058-.008.058.008.062.013.003.012.005-.01.043-.053.087-.066.094-.19.09a.203.203 0 0 0-.08.01c-.032.013-.044.013-.064 0zm3.74-1.055c.013-.01.016-.01.032 0 .013.01.019.01.027.003a.24.24 0 0 1 .071-.014.536.536 0 0 0 .086-.013.247.247 0 0 0 .082-.041c0-.003.016-.012.034-.02.026-.01.037-.02.044-.036.006-.017.014-.023.031-.027a.09.09 0 0 0 .036-.016.172.172 0 0 1 .045-.024.17.17 0 0 0 .048-.027c.011-.011.034-.02.07-.028a.324.324 0 0 0 .077-.024c.013-.008.027-.012.032-.01.005.002.016-.003.023-.01a.053.053 0 0 1 .033-.014c.01 0 .024-.006.03-.013a.072.072 0 0 1 .034-.018c.026-.005.059-.029.059-.041 0-.013.037-.05.05-.05.006 0 .02-.01.03-.022a.29.29 0 0 1 .068-.048.284.284 0 0 0 .051-.031c.003-.004.01-.007.016-.007.007 0 .031-.02.054-.044a.219.219 0 0 1 .049-.044.076.076 0 0 0 .028-.016.06.06 0 0 1 .034-.017c.013 0 .06-.033.078-.054a.063.063 0 0 0 .008-.033c0-.013.005-.032.012-.042.01-.017.01-.022.002-.037-.01-.019-.003-.03.018-.03a.308.308 0 0 0 .066-.073c.002-.005.001-.014-.003-.022-.005-.01-.004-.015.011-.027.022-.017.033-.037.038-.072a.277.277 0 0 1 .05-.126.14.14 0 0 0 .03-.069.145.145 0 0 1 .03-.07.145.145 0 0 0 .024-.039c0-.004.007-.018.017-.03a.088.088 0 0 0 .016-.043c0-.021.01-.042.028-.062a.282.282 0 0 0 .04-.1c0-.007.006-.017.013-.024a.098.098 0 0 0 .017-.046c.003-.022.009-.037.018-.044.012-.009.015-.02.017-.06.002-.041.006-.055.024-.083.02-.032.021-.036.014-.062-.006-.024-.006-.03.005-.041.032-.035.068-.089.065-.098a.117.117 0 0 1 .005-.078.091.091 0 0 0 .012-.033c0-.007.01-.025.024-.04.015-.016.023-.032.022-.041a.166.166 0 0 1 .032-.09c.015-.02.02-.033.028-.09a.118.118 0 0 1 .016-.046.114.114 0 0 0 .016-.043c.003-.014.008-.028.011-.03.003-.002.006-.009.006-.015a.12.12 0 0 1 .027-.04c.015-.018.027-.036.027-.043a.03.03 0 0 1 .007-.018.064.064 0 0 0 .01-.029.078.078 0 0 1 .01-.03.102.102 0 0 0 .01-.033.113.113 0 0 1 .02-.044.115.115 0 0 0 .028-.06l.007-.04c.004-.025.003-.03-.009-.036-.01-.006-.02-.003-.046.016a.178.178 0 0 1-.04.024c-.003 0-.01.004-.016.01a.149.149 0 0 1-.044.018c-.018.005-.036.013-.039.019a1.422 1.422 0 0 0-.02.042c-.02.044-.042.065-.072.07-.037.005-.061.02-.103.058a.374.374 0 0 1-.065.048.418.418 0 0 0-.047.029.485.485 0 0 1-.076.037.339.339 0 0 0-.085.049.149.149 0 0 1-.045.03.4.4 0 0 0-.142.056.62.62 0 0 1-.073.045.343.343 0 0 0-.054.033.109.109 0 0 1-.036.02c-.02.004-.037.03-.043.066-.006.03-.014.038-.06.05-.043.014-.07.013-.085 0a.052.052 0 0 0-.064-.007 3.72 3.72 0 0 1-.042.022.234.234 0 0 0-.044.032c-.02.02-.028.023-.054.022a.141.141 0 0 0-.068.017.27.27 0 0 1-.068.022.072.072 0 0 0-.05.024.16.16 0 0 1-.036.03c-.011.005-.022.014-.024.02a.095.095 0 0 1-.032.024.448.448 0 0 0-.06.04.114.114 0 0 1-.073.03.214.214 0 0 0-.06.014.091.091 0 0 1-.03.01.108.108 0 0 0-.034.013.217.217 0 0 1-.06.018.097.097 0 0 0-.055.02.16.16 0 0 1-.08.038c-.007 0-.02.009-.028.02-.009.013-.02.02-.03.02a.036.036 0 0 0-.026.014c-.007.01-.024.018-.05.023a.249.249 0 0 0-.08.035.42.42 0 0 1-.119.063.196.196 0 0 0-.042.024.483.483 0 0 1-.086.042.51.51 0 0 0-.064.026.203.203 0 0 1-.044.017.341.341 0 0 0-.06.024.165.165 0 0 1-.039.016.117.117 0 0 0-.034.02.107.107 0 0 1-.036.02.096.096 0 0 0-.033.014.109.109 0 0 1-.05.014c-.02 0-.035.006-.06.023a.237.237 0 0 1-.047.028.608.608 0 0 0-.143.065.06.06 0 0 1-.03.017.096.096 0 0 0-.033.013.85.85 0 0 1-.036.024c-.025.016-.027.032-.011.07.005.013.01.028.008.033a.076.076 0 0 0 .01.032.51.51 0 0 1 .025.054.105.105 0 0 1 .01.028c.003.01.013.023.029.032.024.014.024.015.02.048-.004.029-.003.037.009.052.008.01.014.024.014.032s.004.02.01.028c.004.007.01.02.011.03.002.01.021.032.053.06a.45.45 0 0 1 .1.114c.012.014.029.04.037.056a.085.085 0 0 0 .047.045c.037.018.042.025.033.042-.008.016.008.035.04.049.012.004.02.013.02.02 0 .006.015.024.033.04.017.016.04.043.049.06a.096.096 0 0 0 .049.047c.029.014.032.017.032.038 0 .021.002.024.03.035.025.01.038.02.06.051.04.06.153.121.218.121.019 0 .04.007.065.02.042.023.051.024.072.01zm-2.662-.836a.123.123 0 0 0 .04-.02.159.159 0 0 1 .097-.035c.04-.004.09-.022.09-.033 0-.003.016-.013.035-.023a.46.46 0 0 0 .057-.034.254.254 0 0 1 .05-.027.177.177 0 0 0 .048-.027.062.062 0 0 1 .034-.016c.01 0 .028-.01.044-.024.039-.036.073-.051.151-.07a.175.175 0 0 0 .044-.02.876.876 0 0 1 .078-.043.298.298 0 0 0 .064-.04.048.048 0 0 1 .03-.013.06.06 0 0 0 .032-.01.061.061 0 0 1 .03-.01.09.09 0 0 0 .041-.017.365.365 0 0 1 .158-.062.11.11 0 0 0 .045-.03c.017-.019.03-.027.043-.027.04 0 .055-.023.034-.05a.078.078 0 0 1-.01-.04.104.104 0 0 0-.016-.05c-.028-.043-.054-.13-.044-.149.006-.012.006-.019 0-.034a.319.319 0 0 1-.012-.079c-.003-.06-.012-.084-.038-.105a.259.259 0 0 1-.032-.113c-.004-.17-.013-.226-.04-.269-.017-.027-.02-.041-.024-.09a.427.427 0 0 0-.032-.17c-.01-.014-.012-.023-.009-.041.005-.024.01-.1.01-.142a.1.1 0 0 1 .015-.046.094.094 0 0 0 0-.086.302.302 0 0 1-.005-.068.224.224 0 0 0-.022-.112.27.27 0 0 1-.022-.072c0-.025 0-.025-.022-.015a.548.548 0 0 0-.093.187c0 .01-.008.03-.017.046a.115.115 0 0 0-.016.048c0 .011-.007.03-.015.039a.22.22 0 0 0-.026.058.25.25 0 0 1-.029.062.584.584 0 0 0-.08.16.603.603 0 0 1-.033.084.075.075 0 0 0-.01.047c.003.03-.004.048-.031.075a.425.425 0 0 0-.065.126.141.141 0 0 1-.023.042.164.164 0 0 0-.023.04.094.094 0 0 1-.011.024.223.223 0 0 0-.017.04.79.79 0 0 1-.03.076.373.373 0 0 0-.03.1c-.007.052-.01.06-.032.083a.161.161 0 0 0-.032.05.077.077 0 0 1-.015.03c-.003.002-.006.011-.006.02a.16.16 0 0 1-.013.047.382.382 0 0 0-.02.062.252.252 0 0 1-.024.06.301.301 0 0 0-.025.058.146.146 0 0 1-.02.044c-.016.019-.026.04-.026.055a.5.5 0 0 1-.079.148.138.138 0 0 0-.02.036.274.274 0 0 1-.023.048.333.333 0 0 0-.027.064.228.228 0 0 1-.031.065c-.01.011-.018.031-.023.064a.633.633 0 0 1-.014.07c-.02.066-.02.062-.005.062a.205.205 0 0 0 .042-.008zM4.12 4.77c0-.02-.003-.024-.014-.024-.014 0-.021.022-.014.041.008.02.028.008.028-.018zm.021-.083c.022-.023.029-.036.032-.06a.39.39 0 0 1 .024-.11.44.44 0 0 0 .035-.114.111.111 0 0 0-.008-.037c-.01-.027.004-.066.03-.077a.449.449 0 0 0 .066-.166 26.4 26.4 0 0 0 .015-.085.387.387 0 0 1 .02-.08.108.108 0 0 0 .012-.04c0-.012.004-.032.01-.047a.272.272 0 0 0 .013-.058.155.155 0 0 1 .03-.074c.02-.028.028-.048.028-.064 0-.013.008-.04.017-.06a.196.196 0 0 0 .018-.051.652.652 0 0 0-.015-.128c-.006-.022-.005-.03.002-.042.006-.01.008-.027.005-.055-.004-.041 0-.059.032-.124a.068.068 0 0 0 .005-.041c-.003-.014 0-.028.01-.046a.514.514 0 0 0 .061-.163.13.13 0 0 1 .016-.055.37.37 0 0 0 .03-.145c0-.016.005-.038.01-.05.01-.017.01-.021.001-.033-.022-.03 0-.23.034-.312.017-.04.018-.052.015-.151 0-.033.003-.053.014-.08a.192.192 0 0 0 .016-.06.18.18 0 0 1 .006-.047.275.275 0 0 0 .01-.05.19.19 0 0 1 .007-.042.655.655 0 0 0-.005-.14.191.191 0 0 1 .005-.05.14.14 0 0 0 .003-.054.215.215 0 0 1-.001-.057.69.69 0 0 0-.007-.174l-.01-.017-.018.014a.19.19 0 0 0-.052.094.18.18 0 0 1-.038.073c-.005.005-.009.018-.009.028a.118.118 0 0 1-.02.052.357.357 0 0 0-.041.145.592.592 0 0 1-.028.099.294.294 0 0 0-.019.063.134.134 0 0 1-.018.046c-.022.036-.024.044-.023.074a.083.083 0 0 1-.019.049.136.136 0 0 0-.024.066c-.009.068-.014.085-.032.11a.486.486 0 0 0-.036.15.391.391 0 0 1-.045.124c-.003.003-.006.015-.006.025a.23.23 0 0 1-.014.058.223.223 0 0 0-.013.09.144.144 0 0 1-.02.09.175.175 0 0 0-.02.066.114.114 0 0 1-.01.044c-.012.023-.014.06-.004.111a.13.13 0 0 1-.003.07.281.281 0 0 0-.01.065c0 .017-.003.06-.007.098a1.013 1.013 0 0 0-.008.106c0 .021-.002.04-.006.043-.004.002-.007.025-.007.05a.31.31 0 0 1-.007.068.62.62 0 0 0-.02.142 1.819 1.819 0 0 1-.017.134c-.011.063-.012.089-.004.111a.186.186 0 0 1 0 .063 1.49 1.49 0 0 0-.01.136c-.002.142-.006.189-.017.206-.009.014-.01.03-.004.095a.766.766 0 0 1-.004.179c-.003.013.006.03.015.03a.165.165 0 0 0 .032-.028zM8.812 3.41c-.012-.022-.009-.048.005-.048.016 0 .043-.036.038-.05a.112.112 0 0 1 .008-.048c.012-.035.012-.04.001-.067-.007-.02-.008-.032-.004-.036a.11.11 0 0 0 .01-.043l.006-.064a.64.64 0 0 0 .007-.08.796.796 0 0 1 .007-.074.797.797 0 0 0 .008-.06.198.198 0 0 1 .008-.051.146.146 0 0 0 .01-.04.118.118 0 0 1 .011-.042c.012-.014.013-.065.002-.09a.266.266 0 0 1-.01-.074.152.152 0 0 0-.01-.068c-.01-.015-.01-.017.004-.031.012-.013.014-.02.01-.054-.005-.042-.013-.055-.035-.061-.013-.004-.015-.002-.015.012 0 .01-.004.02-.008.022-.004.002-.006.02-.003.045a.102.102 0 0 1-.012.069c-.013.024-.015.038-.015.106s-.001.08-.012.093c-.01.01-.013.024-.013.047.004.143.006.161.018.187.013.029.015.064.005.083a.334.334 0 0 0-.019.103.411.411 0 0 1-.014.078.141.141 0 0 0-.01.04c.002.004.003.049.004.099a.354.354 0 0 0 .01.108c.006.01.011.013.013.009a.034.034 0 0 0-.005-.022zm.094-1.15c0-.002-.005-.008-.013-.012-.014-.01-.023.003-.016.021.003.008.006.009.016.002.008-.005.013-.01.013-.012zm2.067 7.404a.125.125 0 0 0-.046-.006c-.006.003-.016.001-.02-.002a.131.131 0 0 0-.042-.012.191.191 0 0 1-.047-.012.043.043 0 0 0-.022-.006c-.005.001-.016-.003-.024-.009a.068.068 0 0 0-.033-.01c-.036 0-.088-.074-.073-.103a.089.089 0 0 0 .003-.045c-.002-.022 0-.036.006-.045a.032.032 0 0 0 .004-.027c-.003-.009 0-.022.01-.037a.25.25 0 0 0 .024-.06c.01-.038.03-.052.066-.044.015.003.024-.001.04-.018a.146.146 0 0 1 .042-.028.038.038 0 0 0 .024-.022c.004-.02.027-.027.04-.014.006.006.019.01.03.01s.023.004.027.009c.005.005.02.013.036.017.03.01.067.04.067.056 0 .005.02.027.045.05.025.022.049.05.054.064l.016.037c.026.059.027.063.01.081a.06.06 0 0 0-.017.041c0 .017-.004.026-.018.035a.636.636 0 0 0-.043.034.103.103 0 0 1-.033.022c-.005 0-.017.01-.027.021-.025.027-.056.034-.1.023zM.905 9.45c-.006-.01.003-.02.018-.02.014 0 .016.007.005.019-.01.01-.017.01-.023.001z"/>
</svg>
