<svg xmlns="http://www.w3.org/2000/svg" viewBox="0 0 13.493749 7.1437502">
  <path fill="#f9f9f9" d="m 12.117949,7.0051983 c -0.242455,-0.160866 -0.336802,-0.505383 -0.544381,-0.718052 -0.244858,-0.300148 -0.479923,-0.618959 -0.685741,-0.963271 -0.151392,-0.246905 -0.314073,-0.492577 -0.509285,-0.706409 -0.130655,-0.129068 -0.27724,-0.454389 -0.4189346,-0.455666 -0.2403609,0.242464 -0.4520309,0.51441 -0.6878689,0.748316 -0.301618,0.370529 -0.608354,0.736481 -0.976897,1.040463 -0.143084,0.261693 -0.392395,0.423439 -0.591749,0.631105 -0.0689,0.193972 -0.560028,0.447155 -0.326324,0.07263 0.276025,-0.155579 0.417156,-0.484075 0.693777,-0.664523 0.132137,-0.16859 0.21624,-0.288086 0.376671,-0.428039 0.197234,-0.216306 0.354608,-0.459923 0.604062,-0.625354 0.257339,-0.288006 0.555944,-0.535771 0.792661,-0.844676 0.1799055,-0.194494 -0.19784,-0.408283 -0.238469,-0.612296 -0.165315,-0.318126 -0.41198,-0.572463 -0.587159,-0.882392 -0.210222,-0.252134 -0.33812,-0.552259 -0.534089,-0.814204 -0.145999,-0.113504 -0.229557,-0.28387 -0.317999,-0.453304 -0.05989,-0.254494 -0.347361,-0.39534399 -0.358908,-0.67021699 0.153629,-0.196334 0.198896,0.0051 0.28676,0.165302 0.13127,0.25353899 0.327565,0.46082199 0.435808,0.73028699 0.288386,0.484401 0.669927,0.908916 0.937107,1.40735 0.227972,0.273052 0.371641,0.610644 0.6055025,0.872668 0.220572,-0.219832 0.417898,-0.501221 0.617633,-0.742285 0.364668,-0.404957 0.75499,-0.787833 1.123329,-1.194525 0.19925,-0.267914 0.397206,-0.551134 0.627198,-0.80686 0.288452,-0.23252799 0.403254,-0.59130699 0.663678,-0.84869799 0.1128,-0.1726 0.363695,-0.08479 0.207088,0.08308 -0.326276,0.415455 -0.618329,0.82247799 -0.997453,1.18809799 -0.257469,0.267508 -0.462264,0.602475 -0.745837,0.832851 -0.333682,0.336784 -0.667469,0.680666 -0.959354,1.059658 -0.103623,0.236762 -0.6567556,0.495384 -0.331267,0.735998 0.358451,0.462323 0.734892,0.910898 1.021295,1.423945 0.278934,0.398712 0.520712,0.832196 0.847314,1.198351 0.14686,0.07236 0.165984,0.210907 -0.0179,0.246928 z m 0.05853,-0.233688 c -0.02978,-0.01287 0.0094,0.02882 0,0 z m 0.06105,0.210905 c 0.01542,-0.02157 0.01542,0.02157 0,0 z m -4.8606345,-0.07265 c 0.01417,-0.02525 0.0012,0.02733 0,0 z M 0.54913949,6.3649193 c -0.191485,-0.04258 -0.420562,-0.150518 -0.359545,-0.329024 -0.03145,-0.211549 -0.04182,-0.439664 -0.04875,-0.640727 -0.03837,-0.280127 0.05841,-0.57152 0.170281,-0.834356 0.119254,-0.213358 0.161898,-0.455543 0.310793,-0.652245 0.191013,-0.221958 0.37357401,-0.433111 0.34880701,-0.74619 0.01152,-0.193514 0.04604,-0.364186 0.09327,-0.568864 0.0391,-0.201553 0.09267,-0.395746 0.163808,-0.599962 0.109491,-0.229302 0.09593,-0.491617 0.235601,-0.697333 0.05836,-0.269153 0.244918,-0.45468399 0.422213,-0.68232199 0.211872,-0.164943 0.407219,-0.573373 0.698087,-0.462923 0.330499,0.132416 0.57227,0.405873 0.654101,0.751604 0.07654,0.37072099 0.08192,0.77113399 0.06642,1.15754899 0.06754,0.198748 -0.108279,0.478066 -0.03021,0.695752 -0.159706,0.338758 -0.186645,0.734636 -0.331503,1.069592 -0.100318,0.330369 -0.266148,0.694176 -0.269462,1.064171 -0.08148,0.312892 0.237674,0.648584 0.547432,0.538227 0.410229,-0.282322 0.695792,-0.684828 0.990152,-1.076838 0.218463,-0.203232 0.05221,-0.446411 0.07955,-0.706352 0.0086,-0.404487 0.02225,-0.819141 0.13732,-1.216862 0.08496,-0.230043 0.108417,-0.485305 0.251562,-0.685468 0.157422,-0.344465 0.41097,-0.634434 0.618871,-0.93840599 0.274733,-0.266068 0.515011,0.24550599 0.365769,0.49852399 -0.06282,0.355315 -0.110664,0.702351 -0.25549,1.038118 -0.145309,0.464355 -0.229129,0.961271 -0.529199,1.360716 0.0019,0.301017 -0.470881,0.472094 -0.237316,0.789221 0.08641,0.171114 0.223644,0.495048 0.458115,0.360553 0.252642,-0.06795 0.429027,-0.233265 0.547374,-0.467218 0.196123,-0.228821 0.185928,-0.586289 0.319432,-0.831661 0.321496,0.02842 0.0427,0.485482 0.0074,0.690194 -0.0062,0.137636 -0.198605,0.750863 0.0831,0.532991 0.155171,-0.08127 0.452647,-0.134276 0.367488,-0.334066 0.141166,-0.271087 0.325546,-0.538372 0.546516,-0.768979 0.194015,-0.07227 0.571286,-0.260176 0.694145,-0.01908 0.114242,0.274994 -0.429093,0.133326 -0.60291,0.283161 -0.203055,0.14369 -0.466591,0.389586 -0.39981,0.680084 0.229379,0.188934 0.541133,0.156922 0.795112,0.0177 0.153336,-0.09189 0.462687,-0.08652 0.36814,-0.337175 -0.002,-0.280839 0.213299,-0.558645 0.437253,-0.732504 0.172613,-0.129993 0.671348,-0.244346 0.554316,0.135055 -0.08866,0.390121 -0.412084,0.670819 -0.734535,0.881286 0.129326,0.395911 0.602376,-0.09898 0.766012,0.08068 -0.05714,0.326716 -0.615182,0.335441 -0.865735,0.207203 -0.147012,-0.255613 -0.357045,0.05174 -0.537667,0.06469 -0.286363,0.04736 -0.783494,0.103771 -0.912179,-0.168019 -0.16421,0.09197 -0.452009,0.403296 -0.703363,0.268551 -0.202067,-0.07448 -0.08355,-0.504495 -0.309832,-0.123508 -0.172402,0.161222 -0.494876,0.276594 -0.722683,0.149679 -0.270235,-0.05355 -0.361882,-0.729139 -0.558999,-0.447129 -0.192424,0.298649 -0.335968,0.646626 -0.671041,0.819826 -0.23513,0.193965 -0.610988,0.344605 -0.879599,0.154627 -0.12428,-0.149409 -0.15738,-0.354962 -0.192089,-0.537421 0.08438,-0.565488 -0.250795,0.214693 -0.368457,0.377567 -0.206874,0.306858 -0.443109,0.59023 -0.775364,0.769984 -0.224511,0.189024 -0.52869501,0.153086 -0.80266001,0.167324 z m 0.300685,-0.209908 c 0.36535701,0.01969 0.61214601,-0.260739 0.85186301,-0.486179 0.276198,-0.227859 0.408415,-0.580943 0.604909,-0.869394 0.151912,-0.266253 0.248411,-0.543146 0.390069,-0.819166 0.08086,-0.282514 0.208225,-0.531352 0.257252,-0.803115 0.07885,-0.227733 0.136596,-0.465174 0.136167,-0.705214 0.04765,-0.283212 0.02989,-0.556686 0.0036,-0.838152 -0.0017,-0.274294 0.01667,-0.586264 -0.102752,-0.85264299 -0.08044,-0.258726 -0.404986,-0.549628 -0.652879,-0.296355 -0.251206,0.197203 -0.48667,0.410885 -0.612852,0.71612299 -0.126177,0.20993 -0.229902,0.436453 -0.274072,0.672852 -0.103274,0.232744 -0.174043,0.490846 -0.180905,0.7485 -0.08098,0.278353 -0.135542,0.705471 0.217911,0.318991 0.338023,-0.26162 0.05137,0.288402 -0.114359,0.376767 -0.384334,0.213467 -0.102394,0.622733 -0.161522,0.94725 -0.06433,0.139057 0.100831,0.386399 0.01136,0.52257 -0.28769101,-0.03311 -0.207721,-0.399542 -0.216939,-0.574846 0.0083,-0.318361 -0.06112,-0.472628 -0.21338901,-0.109397 -0.162498,0.242598 -0.3376,0.482165 -0.395205,0.775955 -0.134757,0.328819 -0.08391,0.70211 -0.02731,1.034181 -0.0014,0.258162 0.282268,0.252159 0.479061,0.241272 z M 8.0667115,4.3647533 c 0.196678,-0.152483 0.506117,-0.407044 0.469914,-0.648241 -0.293414,0.026 -0.413865,0.37333 -0.509032,0.60995 0.01167,0.01104 0.0061,0.06888 0.03912,0.03829 z m -3.551679,-0.498431 c 0.09973,-0.246774 0.319593,-0.45236 0.409607,-0.707938 0.136002,-0.239327 0.211793,-0.502661 0.259826,-0.768711 0.165572,-0.252746 0.1647,-0.588207 0.258322,-0.873932 0.0031,-0.210172 0.09354,-0.79367099 -0.186468,-0.344485 -0.229152,0.351024 -0.426115,0.719877 -0.606878,1.099416 -0.145074,0.484919 -0.193215,0.992705 -0.171781,1.497434 0.0374,0.005 -0.01712,0.123057 0.03737,0.09821 z m 1.976189,2.443341 c 0.03509,-0.04454 0.01817,0.0085 0,0 z m -1.397343,-1.137374 c 0.01489,-0.02142 0.0073,0.02199 0,0 z M 0.15665449,5.0404033 c -0.0068,-0.02321 0.0234,0.0038 0,0 z M 5.9949245,3.1639513 c -0.378797,-0.103111 0.06427,-0.512804 0.289336,-0.282669 0.1379,0.156257 -0.168937,0.286408 -0.289336,0.282669 z m -2.684697,-1.936653 c 0.01489,-0.02142 0.0073,0.02199 0,0 z m 4.470345,-0.03863 c 0.04998,-0.04645 -0.0045,0.03462 0,0 z"/>
</svg>
