<svg xmlns="http://www.w3.org/2000/svg" viewBox="0 0 13.49375 7.1437502">
  <path fill="#f9f9f9" d="m 12.146413,7.011367 c -0.23846,-0.14248 -0.326894,-0.48897 -0.527139,-0.69431 -0.183918,-0.2272 -0.344885,-0.43896 -0.517047,-0.68323 -0.173426,-0.28721 -0.350341,-0.56119 -0.540886,-0.83287 -0.214524,-0.16804 -0.368235,-0.58179 -0.5849612,-0.63242 -0.240984,0.24221 -0.450175,0.51271 -0.684868,0.74569 -0.304042,0.37091 -0.61211,0.7402 -0.981947,1.04467 -0.139703,0.26373 -0.392668,0.42135 -0.5901533,0.63092 -0.07631,0.26143 -0.605211,0.37449 -0.28564,0.0657 0.225065,-0.17945 0.3618053,-0.43687 0.5997343,-0.61242 0.128587,-0.11493 0.229251,-0.28437 0.319437,-0.36272 0.235453,-0.20169 0.375849,-0.49988 0.640999,-0.66559 0.246478,-0.28606 0.55438,-0.5158 0.780118,-0.81971 0.3661622,-0.22247 -0.100772,-0.49396 -0.16192,-0.7485 -0.196357,-0.31881 -0.422107,-0.60345 -0.626741,-0.91505 -0.188074,-0.25019 -0.318004,-0.55049 -0.523904,-0.78873 -0.119572,-0.10373 -0.198831,-0.26723 -0.277794,-0.41749 -0.05943,-0.24629 -0.324497,-0.38439999 -0.356576,-0.64207999 0.081,-0.22029 0.229869,-0.0639 0.274924,0.11721 0.132723,0.26194999 0.334043,0.47439999 0.446062,0.75076999 0.290083,0.48431 0.670607,0.9117 0.939034,1.41063 0.228242,0.27356 0.371891,0.6129 0.6067662,0.87471 0.197177,-0.2062 0.410875,-0.44782 0.564422,-0.70029 0.345451,-0.33621 0.658007,-0.70424 1.003288,-1.04442 0.243614,-0.22868 0.385574,-0.51143 0.601675,-0.76653 0.208766,-0.25541 0.457115,-0.47349999 0.62315,-0.75589999 0.04715,-0.17558 0.365036,-0.52998 0.467275,-0.37579 0.06105,0.15919 -0.256554,0.38457 -0.344121,0.54851 C 12.789685,1.039927 12.535936,1.296917 12.293624,1.580467 c -0.289929,0.26017 -0.475221,0.61691 -0.786261,0.84677 -0.277861,0.29838 -0.578229,0.58054 -0.81893,0.91545 -0.130455,0.21407 -0.569028,0.5238 -0.481176,0.71525 0.264099,0.26301 0.474093,0.60601 0.725539,0.8938 0.366304,0.5813 0.725437,1.15904 1.136812,1.70964 0.08252,0.10944 0.268145,0.15978 0.201569,0.31361 -0.06255,-0.043 -0.05491,0.0298 -0.124764,0.0365 z m 0.118795,-0.13447 c -0.02561,-0.0315 0.0077,0.0384 0,0 z m -2.116853,-2.8388 c -0.01506,-0.1113 -0.05585,0.0896 0,0 z m 2.115081,2.95326 c 0.01545,-0.0216 0.01545,0.0216 0,0 z M 0.57158952,6.375527 c -0.184962,-0.0731 -0.439554,-0.0822 -0.381062,-0.33803 -0.04052,-0.22388 -0.02214,-0.43462 -0.05747,-0.65763 -0.01069,-0.31377 0.09185,-0.63058 0.230545,-0.92012 0.08688,-0.22585 0.183892,-0.4486 0.319063,-0.6482 0.250976,-0.16343 0.270063,-0.42219 0.28688,-0.68495 0.04602,-0.22621 0.06549,-0.50023 0.14896998,-0.72834 0.02591,-0.27876 0.208841,-0.54774 0.227346,-0.83492 0.09188,-0.18258 0.15078,-0.38974 0.237831,-0.5632 0.228717,-0.31305999 0.493418,-0.63026999 0.810327,-0.86350999 0.305006,-0.0451 0.681438,0.26701 0.7844,0.58273 0.176684,0.32772999 0.08555,0.69129999 0.149018,1.04508999 0.01092,0.26912 -0.01146,0.49396 -0.04892,0.7594 0.01235,0.29794 -0.138048,0.5518 -0.189024,0.85115 -0.0899,0.37098 -0.222897,0.65871 -0.331919,1.03526 -0.06422,0.31179 -0.196503,0.74769 0.10828,0.96236 0.212814,0.18462 0.493081,0.0204 0.648234,-0.1722 0.324705,-0.29391 0.554554,-0.66419 0.824931,-1.00564 -0.0186,-0.24676 -0.04982,-0.49637 -0.03311,-0.76707 0.01841,-0.42797 0.05325,-0.87786 0.221124,-1.2825 0.05631,-0.34747 0.308933,-0.62134 0.465173,-0.9353 0.179018,-0.19846 0.471452,-0.77375999 0.683902,-0.30652999 0.07508,0.26681999 -0.0351,0.57904999 -0.09665,0.85052999 -0.01602,0.33745 -0.221564,0.63335 -0.27177,0.96984 -0.0739,0.36538 -0.236482,0.70244 -0.431469,1.01568 -0.01931,0.28872 -0.463067,0.46191 -0.219077,0.7764 0.08846,0.17309 0.239485,0.46735 0.452729,0.34014 0.256104,-0.0714 0.446351,-0.23983 0.551586,-0.4886 0.24013,-0.20617 0.144339,-0.64981 0.349904,-0.82455 0.310748,0.181 -0.07412,0.57405 -0.05103,0.85612 -0.0701,0.22948 -0.07802,0.60047 0.197192,0.34838 0.34379,-0.0769 0.238385,-0.2705 0.389741,-0.50476 0.187992,-0.22759 0.321329,-0.60901 0.66944,-0.65467 0.202866,-0.10629 0.537123,-0.0589 0.496054,0.21017 -0.364823,-0.0729 -0.474066,0.31658 -0.733675,0.50836 -0.298268,0.20159 -0.365106,0.49441 0.08395,0.43135 0.220727,0.0528 0.467708,-0.14919 0.690962,-0.21909 0.2040923,-0.0858 -0.0045,-0.43702 0.2086283,-0.58878 0.144864,-0.29262 0.443473,-0.50193 0.777234,-0.49202 0.250637,0.12916 0.01493,0.48342 -0.08355,0.65245 -0.160167,0.23454 -0.8959383,0.63718 -0.240841,0.64192 0.207875,-0.16726 0.690547,-0.13272 0.306436,0.13251 -0.304785,0.14371 -0.666741,0.085 -0.892409,-0.10084 -0.2767483,0.19877 -0.5846853,0.23203 -0.9223443,0.20713 -0.328935,-0.014 -0.343272,-0.38287 -0.607282,-0.0253 -0.173005,0.14399 -0.519978,0.20711 -0.587373,-0.0762 -0.02307,-0.31871 -0.32602,0.35274 -0.579288,0.245 -0.30176,0.0613 -0.523095,-0.17862 -0.65386,-0.41972 -0.181126,-0.44662 -0.37494,0.23413 -0.541795,0.42929 -0.26668,0.29373 -0.615284,0.54452 -1.023616,0.5679 -0.149135,-0.0268 -0.303371,-0.15312 -0.331996,-0.30049 -0.146473,-0.13485 0.02374,-0.75327 -0.156317,-0.47585 -0.162424,0.3221 -0.388414,0.67735 -0.642811,0.9716 -0.284428,0.22303 -0.590549,0.51311 -0.98018798,0.4762 -0.07554,0.0149 -0.15513,0.0204 -0.231035,0.0121 z m 0.284282,-0.2128 c 0.35233398,0.0246 0.58209198,-0.24676 0.82282398,-0.45328 0.266088,-0.21261 0.391461,-0.55356 0.592532,-0.82372 0.163323,-0.29916 0.284063,-0.60055 0.434671,-0.90675 0.08681,-0.30429 0.214044,-0.56223 0.27273,-0.86153 0.0927,-0.21215 0.106801,-0.44695 0.121874,-0.67501 0.05566,-0.29567 0.0196,-0.58852 -0.0058,-0.8809 0.02708,-0.3694 -0.0077,-0.80862999 -0.293072,-1.07494999 -0.265792,-0.29432 -0.551734,0.0853 -0.754237,0.24731 -0.253544,0.25529 -0.409218,0.61012999 -0.550448,0.94105999 -0.04194,0.25371 -0.157338,0.44608 -0.205127,0.69747 0.03125,0.19188 -0.212234,0.82214 0.03144,0.66868 0.161396,-0.24248 0.524043,-0.18871 0.226681,0.0517 -0.186848,0.27685 -0.530433,0.48669 -0.347996,0.87252 0.04707,0.24675 -0.03281,0.45999 0.04693,0.71143 -0.03326,0.3076 -0.34311398,-0.14176 -0.241559,-0.31974 -0.0026,-0.22495 0.0057,-0.7627 -0.21415198,-0.25361 -0.174859,0.25732 -0.341118,0.51994 -0.412196,0.82652 -0.125975,0.33848 -0.05003,0.70832 -0.0083,1.04146 0.05366,0.24163 0.300546,0.18005 0.483157,0.19136 z m 0.37500998,-1.6126 c -0.01545,-0.0216 -0.01545,0.0216 0,0 z m 5.474182,-0.14467 c 0.124218,-0.14083 0.622645,-0.66107 0.190286,-0.33072 -0.02716,0.0593 -0.321428,0.39836 -0.190286,0.33072 z m 1.3789083,-0.0379 c 0.173683,-0.14158 0.577216,-0.45834 0.443279,-0.65533 -0.255719,0.0765 -0.461178,0.40997 -0.464507,0.66211 l 0.02122,-0.007 z M 4.5310555,3.844937 c 0.145339,-0.24793 0.321578,-0.48355 0.431782,-0.74734 0.138118,-0.22134 0.181434,-0.49334 0.251902,-0.72178 0.139096,-0.29986 0.189046,-0.63847 0.238779,-0.96317 0.06265,-0.28735 0.01568,-0.62513999 -0.216244,-0.20807 -0.225014,0.4037 -0.502272,0.79043 -0.627987,1.24162 -0.102474,0.43174 -0.143495,0.87867 -0.122012,1.32294 0.02138,0.003 0.0038,0.184 0.04378,0.0758 z m 1.974161,2.47237 c 0.02647,-0.0366 0.01483,0.008 0,0 z M 0.16076452,5.040837 c 0.0088,-0.016 0.0026,0.026 0,0 z m 6.67712198,-0.0387 c 0.01491,-0.0215 0.0073,0.022 0,0 z m -0.830262,-1.83844 c -0.378876,-0.10451 0.06449,-0.50859 0.290202,-0.28311 0.137381,0.15787 -0.167608,0.28818 -0.290202,0.28311 z m 1.7896153,-1.97967 c 0.05009,-0.0465 -0.0045,0.0347 0,0 z"/>
</svg>
