<svg xmlns="http://www.w3.org/2000/svg" viewBox="0 0 15.875 5.5562502">
  <path fill="#f9f9f9" d="m 3.2342096,5.4209133 c -0.11379,-0.16374 0.0874,-0.38239 0.14326,-0.55959 0.25706,-0.37726 5.6e-4,-0.41524 -0.36412,-0.30916 -0.4243,-0.0153 -0.82618,0.14963 -1.25714,0.0749 -0.36321,-0.0252 -0.7364,0.0437 -1.06570005,-0.0649 -0.17415,-0.0541 -0.36235,-0.0664 -0.52799001,-0.1648 -0.14284,-0.007 -0.22314,-0.14791 -0.10673,-0.15107 0.26748001,-0.0417 0.45523001,0.12412 0.67704001,0.19309 0.23464,0.012 0.41156005,0.094 0.65831005,0.0654 0.55476,0.0302 1.11886,-0.0184 1.67816,-0.0546 0.17907,-0.11705 0.54085,0.0303 0.58385,-0.24184 0.0479,-0.17601 0.1589,-0.39225 0.20588,-0.51577 0.12403,-0.20356 0.13831,-0.45946 0.30797,-0.62816 0.066,-0.259435 0.27392,-0.509532 0.30516,-0.758778 -0.1867,0.141978 -0.34916,0.341942 -0.59834,0.381 -0.16462,0.06033 -0.33056,0.08349 -0.47307,0.09842 -0.22994,-0.02397 -0.51796,-0.01958 -0.78404,-0.112524 -0.29807,-0.08891 -0.52009,-0.35429 -0.69738,-0.593319 -0.0899,-0.250804 -0.23487,-0.579909 0.001,-0.8054 0.17542,-0.38233102 0.65617,-0.39109102 1.00377,-0.53117302 0.49465,-0.13752901 1.04683,-0.18758501 1.54071,-0.11565701 0.21553,-0.06903 0.49639,0.11959301 0.78691,0.06722 0.0698,-0.13239002 0.35823,-0.82923502 0.37726,-0.45030502 -0.17275,0.32284 -0.30983,0.64769502 0.19294,0.67727702 0.32502,0.07817 0.61237,0.27475403 0.86309,0.48235803 0.1772,0.242553 0.2863,0.358737 0.40634,0.635288 0.12287,0.316482 0.24558,0.682615 0.0911,1.006293 -0.0564,0.27077 -0.27096,0.44091 -0.43303,0.64485 -0.22963,0.1669 -0.49598,0.26577 -0.77073,0.36091 -0.39484,0.14105 -0.79778,0.26085 -1.22334,0.25147 -0.36249,0.0688 -0.72272,0.10228 -1.08133,0.19037 -0.0858,0.30127 -0.19691,0.59656 -0.29321,0.88614 -0.0768,-0.0328 -0.0864,0.0626 -0.14676,0.0422 z m 0.52753,-1.08013 c 0.26905,-0.0562 0.56138,-0.0922 0.84518,-0.12618 0.3578,-0.0563 0.72957,-0.14331 1.08268,-0.16549 0.21605,-0.0574 0.4718,-0.14974 0.69238,-0.24681 0.19252,-0.10488 0.34861,-0.21251 0.46272,-0.40587 0.17248,-0.1936 0.19929,-0.46367 0.2684,-0.694506 0.0778,-0.226219 -0.0481,-0.442646 -0.15489,-0.647976 -0.15878,-0.382427 -0.49422,-0.651743 -0.82038,-0.889327 -0.24652,-0.07251 -0.46099,-0.17734002 -0.70984,-0.23177902 -0.23297,-0.01639 -0.2786,0.49595702 -0.40855,0.68734402 -0.29725,0.573109 -0.54159,1.170136 -0.84651,1.736814 -0.12432,0.31781 -0.32679,0.63511 -0.40929,0.95148 -0.0322,-9.8e-4 -0.0129,0.0793 -0.002,0.0323 z m -3.48259005,-0.0511 c -0.0447,7.2e-4 -0.006,0.0544 0,0 z M 3.3269696,2.7536123 c -0.0671,-0.03597 0.006,0.009 0,0 z m 0.0788,7.72e-4 c -0.021,-0.01112 -0.005,0.01192 0,0 z m -0.31681,-0.07393 c 0.37756,-0.0289 0.86857,0.04689 1.13364,-0.286541 0.20064,-0.193061 0.29361,-0.508342 0.19991,-0.756439 -0.047,-0.08169 -0.15122,-0.2216 -0.31512,-0.20169 -0.23513,0.07193 -0.32011,0.359266 -0.29109,0.506052 0.15276,0.413096 -0.41597,-0.239269 -0.0708,-0.381194 0.12642,-0.266453 0.55617,-0.297149 0.7227,-0.03411 0.19854,0.07801 -0.0704,0.818231 0.0758,0.703833 0.20257,-0.339716 0.28248,-0.710815 0.49878,-1.037505 0.24567,-0.27825002 0.0566,-0.46640202 -0.27188,-0.40018402 -0.35044,-0.07002 -0.64273,-0.101446 -1.00143,-0.104201 -0.3687,0.05741 -0.73963,0.06091 -1.08409,0.207912 -0.26632,0.10572602 -0.59884,0.15302002 -0.71121,0.45294802 -0.18986,0.316414 0.0549,0.631531 0.22561,0.8882 0.16432,0.253905 0.43187,0.418056 0.73827,0.426732 l 0.0923,0.02091 0.0588,-0.0047 z m 1.32998,-0.76659 c 0.006,-0.02512 0.004,0.03185 0,0 z m -0.92261,3.262919 c -0.0162,-0.0747 0.0222,-0.0127 0,0 z m 5.07923,-0.38792 c -0.13567,-0.26667 0.004,-0.68974 -0.0899,-1.01373 -0.14645,0.20053 -0.31051,0.40218 -0.52012,0.53763 -0.36355,0.32739 -0.84293,-0.17429 -0.65479,-0.57503 0.144,-0.20446 0.17808,-0.57308 0.45996,-0.63106 0.31815,-0.0973 0.43675,0.50132 0.13752,0.56896 -0.36324,0.15585 -0.38589,-0.12923 -0.0142,-0.12993 0.1663,-0.16146 -0.0145,-0.36355 -0.19262,-0.21169 -0.2002,0.0706 -0.19268,0.31542 -0.30001,0.46966 -0.13906,0.41689 0.39172,0.67888 0.64911,0.33544 0.19227,-0.18525 0.43138,-0.39087 0.41853,-0.67799 -0.15116,-0.0804 -0.0286,-0.36917 0.0959,-0.0666 0.12489,0.32178 0.0722,0.67551 0.1336,1.00823 0.20922,-0.29536 0.39668,-0.61365 0.6561804,-0.86225 0.16247,-0.0386 0.47286,-0.31756 0.47615,-0.1005 0.0166,0.27149 -0.13114,0.57244 0.0108,0.83465 0.27526,-0.18404 0.2975,-0.54796 0.53334,-0.77657 0.1754,-0.12196 0.60531,-0.30503 0.73796,-0.0303 0.12175,0.10346 0.0522,-0.61709 0.12708,-0.787945 0.0463,-0.308222 0.10864,-0.621208 0.22197,-0.908905 0.20395,0.07699 -0.002,0.520473 0.0349,0.731413 -0.0395,0.267523 -0.16324,0.523787 -0.1646,0.800647 -0.0265,0.21151 -0.0874,0.41119 -0.0606,0.63035 -0.0348,0.16275 -0.0794,0.33375 -0.19211,0.42708 -0.13852,0.18738 -0.40029,0.21244 -0.5936,0.15545 -0.0801,-0.0337 -0.219,-0.0503 -0.33559,-0.2086 -0.10613,-0.0413 -0.40589,0.21581 -0.47182,-0.005 -0.12084,-0.13239 0.13338,-0.71148 -0.0841,-0.57488 -0.19274,0.0766 -0.4055304,0.14777 -0.5197004,0.3052 -0.10303,0.23503 -0.36422,0.39475 -0.36115,0.6744 -0.0677,9.1e-4 -0.0565,0.10902 -0.13784,0.0815 z m 2.1299504,-0.43439 c 0.38224,0.008 0.46505,-0.55186 0.27294,-0.78757 -0.13876,-0.12595 -0.34735,-0.12446 -0.46637,0.0287 -0.17406,0.10073 -0.25016,0.32805 -0.26757,0.53871 0.0387,0.22554 0.25488,0.23475 0.461,0.22021 z m -1.41286,-0.58186 c 0.0654,-0.0521 0.45562,-0.2465 0.22734,-0.19512 -0.0526,0.0356 -0.30706,0.2014 -0.22734,0.19512 z m 0.0747,-0.075 c 0.012,-0.0235 0.006,0.0132 0,0 z m 2.09054,-1.061682 c -0.006,-0.01933 -0.0131,0.01884 0,0 z m 1.59306,2.000892 c -0.19323,0.062 -0.50501,-0.26656 -0.43534,-0.26033 -0.0362,-0.29767 -0.1102,-0.72979 0.16658,-0.96636 0.35285,-0.33077 0.63538,0.19797 0.35487,0.47232 -0.10494,0.27663 -0.58073,0.16487 -0.12769,0.007 0.22899,-0.12243 0.0374,-0.63626 -0.16076,-0.38051 -0.18669,0.18261 -0.16996,0.50975 -0.13162,0.75809 0.11774,0.24228 0.42056,0.31054 0.65295,0.17344 0.30631,-0.062 0.68622,-0.22681 0.66958,-0.59887 0.077,-0.58452 0.014,-1.179328 -0.0631,-1.7562 -0.14487,-0.219329 0.10578,-0.833945 -0.21573,-0.743216 -0.10279,0.03436 -0.19668,-0.0045 -0.30071,-0.003 -0.12538,-0.01468 -0.20966,0.08126 -0.31825,0.0068 -0.1229,-0.194877 0.0618,-0.302493 0.2275,-0.288589 0.11211,-0.06437 0.25024,0.02338 0.3881,0.02196 0.22691,-0.01675 0.27429,0.132777 0.27436,0.381589 0.0714,0.601035 0.14113,1.201817 0.17021,1.803946 0.0894,0.2796 -0.27096,0.96845 0.24097,0.79697 0.40105,0.11445 0.6589,-0.33194 0.81105,-0.61646 -0.28703,-0.25467 0.21064,-0.767449 0.34761,-0.35565 -0.0164,0.26774 -0.22464,0.47803 -0.16798,0.75739 -0.0349,0.25924 -0.23482,0.6828 0.1566,0.37493 0.19847,-0.14529 0.46429,0.0803 0.11462,0.0698 -0.16675,0.0514 -0.30192,0.16813 -0.47509,0.20857 -0.21112,0.0756 -0.55526,0.11789 -0.57565,-0.15081 0.0387,-0.24828 -0.28092,-0.17252 -0.4292,-0.17408 -0.17387,0.0616 -0.26879,0.30836 -0.40546,0.32171 -0.0807,0.11598 -0.41754,0.12822 -0.41339,0.12746 -0.1169,0.002 -0.23741,0.0128 -0.35507,0.0119 z m 1.97532,-0.21245 c 0.32772,-0.0961 0.45897,-1.0376 0.0439,-0.42424 -0.22078,0.0715 -0.3831,0.27627 -0.22727,0.3776 0.0232,0.079 0.12699,0.0435 0.18343,0.0467 z m -1.02791,-0.0629 c 0.0139,-0.0513 -0.0825,0.0883 0,0 z m 1.43806,-1.01161 c 0.29471,-0.2936 -0.22301,-0.35078 -0.13619,-0.0823 0.0108,0.081 0.0685,0.25097 0.13619,0.0823 z m -0.10435,-0.22522 c -0.0228,-0.0107 -0.0194,0.0274 0,0 z m -1.95328,-1.787853 c -0.021,-0.01111 -0.005,0.01192 0,0 z m 0.0763,-0.01298 c -0.0165,-0.01918 -0.01,0.02663 0,0 z m 0.40907,0.0055 c -0.0147,-0.02102 -0.0108,0.01017 0,0 z m 0.85828,3.208263 c 0.0127,-0.0277 0.005,0.028 0,0 z m -14.40573045,-0.0533 c 0.007,-0.014 0.002,0.0226 0,0 z m -0.27253001,-0.0722 c 0.0143,-0.0428 0.0168,0.0175 0,0 z M 12.70213,4.0827633 c 0.006,-0.0251 0.004,0.0319 0,0 z m -0.001,-0.0317 c 0.0127,-0.0277 0.005,0.028 0,0 z m 0.37967,-0.49223 c 0.006,-0.0186 0.0142,0.0173 0,0 z m -3.35288,-0.43034 c -0.33297,-0.20877 0.3652,-0.486749 0.23319,-0.088 -0.0734,0.0402 -0.14541,0.0905 -0.23319,0.088 z m 4.31094,-0.28613 c 0.005,-0.02384 0.005,0.0238 0,0 z m -0.0593,-0.532068 c 0.007,-0.01409 0.002,0.02281 0,0 z m -0.0216,-0.19925 c 0.0133,-0.01944 0.005,0.03825 0,0 z m -0.0448,-1.007408 c -0.008,-0.02848 0.0345,0.0018 0,0 z m -0.18592,-0.03469 c -0.0154,-0.06863 0.0378,0.01313 0,0 z m -0.11989,-0.02547 c 0.007,-0.02597 0.032,0.02058 0,0 z m -0.15753,-0.0052 c 0.0153,-0.01005 0.0124,0.01817 0,0 z"/>
</svg>
