<svg xmlns="http://www.w3.org/2000/svg" version="1.1" xmlns:xlink="http://www.w3.org/1999/xlink" xmlns:svgjs="http://svgjs.com/svgjs" width="16" height="16"><svg width="16" height="16" xmlns="http://www.w3.org/2000/svg"><path fill="#263238" d="M8.9331692 15.443454q-.223983-1.211709-.468327-2.322441-.244345-1.130928-.529413-2.181074-1.9140331.06059-3.3800998.08078-1.4660673.0202-2.1991012.0202-1.81222282 0-1.81222282-1.2319031 0-.605854.3665173-1.050146.38687842-.464495 1.09955032-.9491776.9773779-.6664394 1.9751187-1.3530737Q5.003294 5.7699837 6.0621211 5.083349q-.3461555-.9491709-.7330339-1.8781479-.3868793-.928976-.7941198-1.8781471L6.1639312.55963887q.3868787.86839063.7533963 1.73678123.3665155.8683907.7126727 1.7569775 1.038462-.6664396 2.11765-1.3328792 1.0791888-.6664395 2.1991018-1.3126839l.733033 1.4742447q-1.201358.6664397-2.321274 1.3328793-1.1199108.6664395-2.1787378 1.332879.346156.9289762.651586 1.8781474.305431.949171.570137 1.898343 1.4660688-.0606 2.9321348-.141368 1.466068-.08078 2.891411-.161559l.223984 1.5954161q-1.445706.100974-2.871051.161561-1.425342.0606-2.7488748.100976.2647058 1.009756.4683258 2.019513.20362.989561.38688 2.019513zM2.4784003 9.5262799q1.2624461-.0202 2.5248936-.0606 1.2624474-.0404 2.5045319-.0606-.2239828-.726996-.4479642-1.433826-.2239829-.7068298-.4683279-1.3934647-2.1380155 1.3934647-4.1538574 2.8475147Z"></path></svg><style>@media (prefers-color-scheme: light) { :root { filter: none; } }
@media (prefers-color-scheme: dark) { :root { filter: contrast(0.3846153846153846) brightness(4.5); } }
</style></svg>